<mxfile host="Electron" modified="2024-02-04T03:33:26.682Z" agent="Mozilla/5.0 (Windows NT 10.0; Win64; x64) AppleWebKit/537.36 (KHTML, like Gecko) draw.io/22.1.2 Chrome/114.0.5735.289 Electron/25.9.4 Safari/537.36" etag="FX_UaJjuhCSHnthhNq69" version="22.1.2" type="device" pages="3">
  <diagram name="drawio-export-tool" id="5lt0G0k0TYABzzTv2wLQ">
    <mxGraphModel dx="780" dy="496" grid="1" gridSize="10" guides="1" tooltips="1" connect="1" arrows="1" fold="1" page="1" pageScale="1" pageWidth="1600" pageHeight="900" math="0" shadow="0">
      <root>
        <mxCell id="0" />
        <mxCell id="1" parent="0" />
        <mxCell id="_pnjgr8NZLfLqCYw4hJR-1" value="&lt;font style=&quot;font-size: 37px;&quot;&gt;drawio-export-tool&lt;/font&gt;" style="ellipse;whiteSpace=wrap;html=1;" vertex="1" parent="1">
          <mxGeometry x="200" y="120" width="560" height="260" as="geometry" />
        </mxCell>
      </root>
    </mxGraphModel>
  </diagram>
  <diagram id="kV4erfen79Vkwqt0xRND" name="èŠ±">
    <mxGraphModel dx="1560" dy="992" grid="1" gridSize="10" guides="1" tooltips="1" connect="1" arrows="1" fold="1" page="1" pageScale="1" pageWidth="1600" pageHeight="900" math="0" shadow="0">
      <root>
        <mxCell id="0" />
        <mxCell id="1" parent="0" />
        <mxCell id="hI7sPMFQllOQqhPdeXpF-1" value="" style="shape=image;verticalLabelPosition=bottom;labelBackgroundColor=default;verticalAlign=top;aspect=fixed;imageAspect=0;image=data:image/jpeg,/9j/4AAQSkZJRgABAQEBLAEsAAD/4RwQRXhpZgAATU0AKgAAAAgACgEOAAIAAACfAAAIkgE7AAIAAAANAAAJMkdGAAMAAAABAAQAAEdJAAMAAAABAEsAAIdpAAQAAAABAAAJQJybAAEAAAE+AAARbJydAAEAAAAaAAASqpyeAAEAAAgGAAASxJyfAAEAAAE+AAAayuocAAcAAAgMAAAAhgAAAAAc6gAAAAgAAAAAAAAAAAAAAAAAAAAAAAAAAAAAAAAAAAAAAAAAAAAAAAAAAAAAAAAAAAAAAAAAAAAAAAAAAAAAAAAAAAAAAAAAAAAAAAAAAAAAAAAAAAAAAAAAAAAAAAAAAAAAAAAAAAAAAAAAAAAAAAAAAAAAAAAAAAAAAAAAAAAAAAAAAAAAAAAAAAAAAAAAAAAAAAAAAAAAAAAAAAAAAAAAAAAAAAAAAAAAAAAAAAAAAAAAAAAAAAAAAAAAAAAAAAAAAAAAAAAAAAAAAAAAAAAAAAAAAAAAAAAAAAAAAAAAAAAAAAAAAAAAAAAAAAAAAAAAAAAAAAAAAAAAAAAAAAAAAAAAAAAAAAAAAAAAAAAAAAAAAAAAAAAAAAAAAAAAAAAAAAAAAAAAAAAAAAAAAAAAAAAAAAAAAAAAAAAAAAAAAAAAAAAAAAAAAAAAAAAAAAAAAAAAAAAAAAAAAAAAAAAAAAAAAAAAAAAAAAAAAAAAAAAAAAAAAAAAAAAAAAAAAAAAAAAAAAAAAAAAAAAAAAAAAAAAAAAAAAAAAAAAAAAAAAAAAAAAAAAAAAAAAAAAAAAAAAAAAAAAAAAAAAAAAAAAAAAAAAAAAAAAAAAAAAAAAAAAAAAAAAAAAAAAAAAAAAAAAAAAAAAAAAAAAAAAAAAAAAAAAAAAAAAAAAAAAAAAAAAAAAAAAAAAAAAAAAAAAAAAAAAAAAAAAAAAAAAAAAAAAAAAAAAAAAAAAAAAAAAAAAAAAAAAAAAAAAAAAAAAAAAAAAAAAAAAAAAAAAAAAAAAAAAAAAAAAAAAAAAAAAAAAAAAAAAAAAAAAAAAAAAAAAAAAAAAAAAAAAAAAAAAAAAAAAAAAAAAAAAAAAAAAAAAAAAAAAAAAAAAAAAAAAAAAAAAAAAAAAAAAAAAAAAAAAAAAAAAAAAAAAAAAAAAAAAAAAAAAAAAAAAAAAAAAAAAAAAAAAAAAAAAAAAAAAAAAAAAAAAAAAAAAAAAAAAAAAAAAAAAAAAAAAAAAAAAAAAAAAAAAAAAAAAAAAAAAAAAAAAAAAAAAAAAAAAAAAAAAAAAAAAAAAAAAAAAAAAAAAAAAAAAAAAAAAAAAAAAAAAAAAAAAAAAAAAAAAAAAAAAAAAAAAAAAAAAAAAAAAAAAAAAAAAAAAAAAAAAAAAAAAAAAAAAAAAAAAAAAAAAAAAAAAAAAAAAAAAAAAAAAAAAAAAAAAAAAAAAAAAAAAAAAAAAAAAAAAAAAAAAAAAAAAAAAAAAAAAAAAAAAAAAAAAAAAAAAAAAAAAAAAAAAAAAAAAAAAAAAAAAAAAAAAAAAAAAAAAAAAAAAAAAAAAAAAAAAAAAAAAAAAAAAAAAAAAAAAAAAAAAAAAAAAAAAAAAAAAAAAAAAAAAAAAAAAAAAAAAAAAAAAAAAAAAAAAAAAAAAAAAAAAAAAAAAAAAAAAAAAAAAAAAAAAAAAAAAAAAAAAAAAAAAAAAAAAAAAAAAAAAAAAAAAAAAAAAAAAAAAAAAAAAAAAAAAAAAAAAAAAAAAAAAAAAAAAAAAAAAAAAAAAAAAAAAAAAAAAAAAAAAAAAAAAAAAAAAAAAAAAAAAAAAAAAAAAAAAAAAAAAAAAAAAAAAAAAAAAAAAAAAAAAAAAAAAAAAAAAAAAAAAAAAAAAAAAAAAAAAAAAAAAAAAAAAAAAAAAAAAAAAAAAAAAAAAAAAAAAAAAAAAAAAAAAAAAAAAAAAAAAAAAAAAAAAAAAAAAAAAAAAAAAAAAAAAAAAAAAAAAAAAAAAAAAAAAAAAAAAAAAAAAAAAAAAAAAAAAAAAAAAAAAAAAAAAAAAAAAAAAAAAAAAAAAAAAAAAAAAAAAAAAAAAAAAAAAAAAAAAAAAAAAAAAAAAAAAAAAAAAAAAAAAAAAAAAAAAAAAAAAAAAAAAAAAAAAAAAAAAAAAAAAAAAAAAAAAAAAAAAAAAAAAAAAAAAAAAAAAAAAAAAAAAAAAAAAAAAAAAAAAAAAAAAAAAAAAAAAAAAAAAAAAAAAAAAAAAAAAAAAAAAAAAAAAAAAAAAAAAAAAAAAAAAAAAAAAAAAAAAAAAAAAAAAAAAAAAAAAAAAAAAAAAAAAAAAAAAAAAAAAAAAAAAAAAAAAAAAAAAAAAAAAAAAAAAAAAAAAAAAAAAAAAAAAAAAAAAAAAAAAAAAAAAAAAAAAAAAAAAAAAAAAAAAAAAAAAAAAAAAAAAAAAAAAAAAAAAAAAAAAAAAAAAAAAAAAAAAAAAAAAAAAAAAAAAAAAAAAAAAAAAAAAAAAAAAAAAAAAAAAAAAAAAAAAAAAAAAAAAAAAAAAAAAAAAAAAAAAAAAAAAAAAAAAAAAAAAAAAAAAAAAAAAAAAAAAAAAAAAAAAAAAAAAAAAAAAAAAAAAAAAAAAAAAAAAAAAAAAAAAAAAAAAAAAAAAAAAAAAAAAAAAAAAAAAAAAAAAAAAAAAAAAAAAAAAAAAAAAAAAAAAAAAAAAAAAAAAAAAAAAAAAAAAAAAAAAAAAAAAAAAAAAAAAAAAAAAAAAAAAAAAAAAAAAAAAAAAAAAAAAAAAAAAAAAAAAAAAAAAAAAAAAAAAAAAAAAAAAAAAAAAAAAAAAAAAAAAAAAAAAAAAAAAAAAAAAAAAAAAAAAAAAAAAAAAAAAAAAAAAAAAAAAAAAAAAAAAAAAAAAAAAAAAAAAAAAAAAAAAAAAAAAAAAAAAAAAAAAAAAAAAAAAAAAAAAAAAAAAAAAAAAAAAAAAAAAAAAFRyZWUgcGVvbnksIGlsbHVzdHJhdGlvbiBmcm9tIEJpanV0c3UgU2VrYWkgKDE4OTMtMTg5NikgYnkgV2F0YW5hYmUgU2VpdGVpLCBhIHByb21pbmVudCBLYWNoby1nYSBhcnRpc3QuIERpZ2l0YWxseSBlbmhhbmNlZCBmcm9tIG91ciBvd24gb3JpZ2luYWwgcHVibGljYXRpb24uAAByYXdwaXhlbC5jb20AAAACkAAABwAAAAQwMjEw6hwABwAACAwAAAleAAAAABzqAAAACAAAAAAAAAAAAAAAAAAAAAAAAAAAAAAAAAAAAAAAAAAAAAAAAAAAAAAAAAAAAAAAAAAAAAAAAAAAAAAAAAAAAAAAAAAAAAAAAAAAAAAAAAAAAAAAAAAAAAAAAAAAAAAAAAAAAAAAAAAAAAAAAAAAAAAAAAAAAAAAAAAAAAAAAAAAAAAAAAAAAAAAAAAAAAAAAAAAAAAAAAAAAAAAAAAAAAAAAAAAAAAAAAAAAAAAAAAAAAAAAAAAAAAAAAAAAAAAAAAAAAAAAAAAAAAAAAAAAAAAAAAAAAAAAAAAAAAAAAAAAAAAAAAAAAAAAAAAAAAAAAAAAAAAAAAAAAAAAAAAAAAAAAAAAAAAAAAAAAAAAAAAAAAAAAAAAAAAAAAAAAAAAAAAAAAAAAAAAAAAAAAAAAAAAAAAAAAAAAAAAAAAAAAAAAAAAAAAAAAAAAAAAAAAAAAAAAAAAAAAAAAAAAAAAAAAAAAAAAAAAAAAAAAAAAAAAAAAAAAAAAAAAAAAAAAAAAAAAAAAAAAAAAAAAAAAAAAAAAAAAAAAAAAAAAAAAAAAAAAAAAAAAAAAAAAAAAAAAAAAAAAAAAAAAAAAAAAAAAAAAAAAAAAAAAAAAAAAAAAAAAAAAAAAAAAAAAAAAAAAAAAAAAAAAAAAAAAAAAAAAAAAAAAAAAAAAAAAAAAAAAAAAAAAAAAAAAAAAAAAAAAAAAAAAAAAAAAAAAAAAAAAAAAAAAAAAAAAAAAAAAAAAAAAAAAAAAAAAAAAAAAAAAAAAAAAAAAAAAAAAAAAAAAAAAAAAAAAAAAAAAAAAAAAAAAAAAAAAAAAAAAAAAAAAAAAAAAAAAAAAAAAAAAAAAAAAAAAAAAAAAAAAAAAAAAAAAAAAAAAAAAAAAAAAAAAAAAAAAAAAAAAAAAAAAAAAAAAAAAAAAAAAAAAAAAAAAAAAAAAAAAAAAAAAAAAAAAAAAAAAAAAAAAAAAAAAAAAAAAAAAAAAAAAAAAAAAAAAAAAAAAAAAAAAAAAAAAAAAAAAAAAAAAAAAAAAAAAAAAAAAAAAAAAAAAAAAAAAAAAAAAAAAAAAAAAAAAAAAAAAAAAAAAAAAAAAAAAAAAAAAAAAAAAAAAAAAAAAAAAAAAAAAAAAAAAAAAAAAAAAAAAAAAAAAAAAAAAAAAAAAAAAAAAAAAAAAAAAAAAAAAAAAAAAAAAAAAAAAAAAAAAAAAAAAAAAAAAAAAAAAAAAAAAAAAAAAAAAAAAAAAAAAAAAAAAAAAAAAAAAAAAAAAAAAAAAAAAAAAAAAAAAAAAAAAAAAAAAAAAAAAAAAAAAAAAAAAAAAAAAAAAAAAAAAAAAAAAAAAAAAAAAAAAAAAAAAAAAAAAAAAAAAAAAAAAAAAAAAAAAAAAAAAAAAAAAAAAAAAAAAAAAAAAAAAAAAAAAAAAAAAAAAAAAAAAAAAAAAAAAAAAAAAAAAAAAAAAAAAAAAAAAAAAAAAAAAAAAAAAAAAAAAAAAAAAAAAAAAAAAAAAAAAAAAAAAAAAAAAAAAAAAAAAAAAAAAAAAAAAAAAAAAAAAAAAAAAAAAAAAAAAAAAAAAAAAAAAAAAAAAAAAAAAAAAAAAAAAAAAAAAAAAAAAAAAAAAAAAAAAAAAAAAAAAAAAAAAAAAAAAAAAAAAAAAAAAAAAAAAAAAAAAAAAAAAAAAAAAAAAAAAAAAAAAAAAAAAAAAAAAAAAAAAAAAAAAAAAAAAAAAAAAAAAAAAAAAAAAAAAAAAAAAAAAAAAAAAAAAAAAAAAAAAAAAAAAAAAAAAAAAAAAAAAAAAAAAAAAAAAAAAAAAAAAAAAAAAAAAAAAAAAAAAAAAAAAAAAAAAAAAAAAAAAAAAAAAAAAAAAAAAAAAAAAAAAAAAAAAAAAAAAAAAAAAAAAAAAAAAAAAAAAAAAAAAAAAAAAAAAAAAAAAAAAAAAAAAAAAAAAAAAAAAAAAAAAAAAAAAAAAAAAAAAAAAAAAAAAAAAAAAAAAAAAAAAAAAAAAAAAAAAAAAAAAAAAAAAAAAAAAAAAAAAAAAAAAAAAAAAAAAAAAAAAAAAAAAAAAAAAAAAAAAAAAAAAAAAAAAAAAAAAAAAAAAAAAAAAAAAAAAAAAAAAAAAAAAAAAAAAAAAAAAAAAAAAAAAAAAAAAAAAAAAAAAAAAAAAAAAAAAAAAAAAAAAAAAAAAAAAAAAAAAAAAAAAAAAAAAAAAAAAAAAAAAAAAAAAAAAAAAAAAAAAAAAAAAAAAAAAAAAAAAAAAAAAAAAAAAAAAAAAAAAAAAAAAAAAAAAAAAAAAAAAAAAAAAAAAAAAAAAAAAAAAAAAAAAAAAAAAAAAAAAAAAAAAAAAAAAAAAAAAAAAAAAAAAAAAAAAAAAAAAAAAAAAAAAAAAAAAAAAAAAAAAAAAAAAAAAAAAAAAAAAAAAAAAAAAAAAAAAAAAAAAAAAAAAAAAAAAAAAAAAAAAAAAAAAAAAAAAAAAAAAAAAAAAAAAAAAAAAAAAAAAAAAAAAAAAAAAAAAAAAAAAAAAAAAAAAAAAAAAAAAAAAAAAAAAAAAAAAAAAAAAAAAAAAAAAAAAAAAAAAAAAAAAAAAAAAAAAAAAAAAAAAAAAAAAAAAAAAAAAAAAAAAAAAAAAAAAAAAAAAAAAAAAAAAAAAAAAAAAAAAAAAAAAAAAAAAAAAAAAAAAAAAAAAAAAAAAAAAAAAAAAAAAAAAAAAAAAAAAAAAAAAAAAAAAAAAAAAAAAAAAAAAAAAAAAAABUAHIAZQBlACAAcABlAG8AbgB5ACwAIABpAGwAbAB1AHMAdAByAGEAdABpAG8AbgAgAGYAcgBvAG0AIABCAGkAagB1AHQAcwB1ACAAUwBlAGsAYQBpACAAKAAxADgAOQAzAC0AMQA4ADkANgApACAAYgB5ACAAVwBhAHQAYQBuAGEAYgBlACAAUwBlAGkAdABlAGkALAAgAGEAIABwAHIAbwBtAGkAbgBlAG4AdAAgAEsAYQBjAGgAbwAtAGcAYQAgAGEAcgB0AGkAcwB0AC4AIABEAGkAZwBpAHQAYQBsAGwAeQAgAGUAbgBoAGEAbgBjAGUAZAAgAGYAcgBvAG0AIABvAHUAcgAgAG8AdwBuACAAbwByAGkAZwBpAG4AYQBsACAAcAB1AGIAbABpAGMAYQB0AGkAbwBuAC4AAAByAGEAdwBwAGkAeABlAGwALgBjAG8AbQAAADEAOAAwADAAcwAgAHAAdQBiAGwAaQBjACAAZABvAG0AYQBpAG4AOwAxADkAdABoACAAYwBlAG4AdAB1AHIAeQA7AGEAbgB0AGkAcQB1AGUAOwBhAHIAdAA7AGEAcgB0ACAAcAB1AGIAbABpAGMAIABkAG8AbQBhAGkAbgA7AGEAcgB0AHcAbwByAGsAOwBhAHMAaQBhAG4AOwBiAGEAYwBrAGcAcgBvAHUAbgBkADsAYgBpAGoAdQB0AHMAdQA7AGIAaQBqAHUAdABzAHUAIABzAGUAawBhAGkAOwBiAGwAbwBvAG0AOwBiAGwAbwBvAG0AaQBuAGcAOwBiAGwAbwBzAHMAbwBtADsAYgBvAHQAYQBuAGkAYwBhAGwAOwBiAG8AdABhAG4AeQA7AGMAYwAwADsAYwBvAHAAeQByAGkAZwBoAHQAIABmAHIAZQBlACAAcAB1AGIAbABpAGMAIABkAG8AbQBhAGkAbgA7AGMAcgBlAGEAdABpAHYAZQAgAGMAbwBtAG0AbwBuAHMAOwBjAHIAZQBhAHQAaQB2AGUAIABjAG8AbQBtAG8AbgBzACAAMAA7AGQAZQBzAGkAZwBuADsAZAByAGEAdwBpAG4AZwA7AGYAbABvAHcAZQByADsAZgBsAG8AdwBlAHIAcwAgAHAAdQBiAGwAaQBjACAAZABvAG0AYQBpAG4AOwBnAHIAZQBlAG4AOwBoAGkAZwBoACAAcgBlAHMAbwBsAHUAdABpAG8AbgAgAHAAdQBiAGwAaQBjACAAZABvAG0AYQBpAG4AOwBpAGwAbAB1AHMAdAByAGEAdABlAGQAOwBpAGwAbAB1AHMAdAByAGEAdABpAG8AbgA7AGkAbABsAHUAcwB0AHIAYQB0AGkAbwBuACAAcAB1AGIAbABpAGMAIABkAG8AbQBhAGkAbgA7AGoAYQBwAGEAbgA7AGoAYQBwAGEAbgBlAHMAZQA7AGoAYQBwAGEAbgBlAHMAZQAgAHAAdQBiAGwAaQBjACAAZABvAG0AYQBpAG4AOwBrAGEAYwBoAG8AIABnAGEAOwBuAGEAbQBlADsAbwBsAGQAOwBwAGUAbwBuAHkAOwBwAGkAbgBrADsAcABsAGEAbgB0ADsAcABsAGEAbgB0AHMAIABwAHUAYgBsAGkAYwAgAGQAbwBtAGEAaQBuADsAcAByAGkAbgB0ADsAcAByAGkAbgB0AHMAOwBwAHIAaQBuAHQAcwAgAHAAdQBiAGwAaQBjACAAZABvAG0AYQBpAG4AOwBwAHUAYgBsAGkAYwAgAGQAbwBtAGEAaQBuADsAcAB1AGIAbABpAGMAIABkAG8AbQBhAGkAbgAgADEAOAAwADAAcwA7AHAAdQBiAGwAaQBjACAAZABvAG0AYQBpAG4AIABhAHIAdAA7AHAAdQBiAGwAaQBjACAAZABvAG0AYQBpAG4AIABhAHMAaQBhADsAcAB1AGIAbABpAGMAIABkAG8AbQBhAGkAbgAgAGYAbABvAHcAZQByAHMAOwBwAHUAYgBsAGkAYwAgAGQAbwBtAGEAaQBuACAAaQBtAGEAZwBlAHMAOwBwAHUAYgBsAGkAYwAgAGQAbwBtAGEAaQBuACAAagBhAHAAYQBuAGUAcwBlADsAcAB1AGIAbABpAGMAIABkAG8AbQBhAGkAbgAgAHAAZQBvAG4AaQBlAHMAOwBwAHUAYgBsAGkAYwAgAGQAbwBtAGEAaQBuACAAcABsAGEAbgB0AHMAOwBwAHUAYgBsAGkAYwAgAGQAbwBtAGEAaQBuACAAcAByAGkAbgB0AHMAOwBwAHUAYgBsAGkAYwAgAGQAbwBtAGEAaQBuACAAcgBhAHcAcABpAHgAZQBsACAAYwBvAGwAbABlAGMAdABpAG8AbgA7AHAAdQBiAGwAaQBjACAAZABvAG0AYQBpAG4AIAB3AG8AbwBkAGIAbABvAGMAawAgAHAAcgBpAG4AdABzADsAcgBhAHcAcABpAHgAZQBsACAAYwBvAGwAbABlAGMAdABpAG8AbgAgAHAAdQBiAGwAaQBjACAAZABvAG0AYQBpAG4AOwByAG8AeQBhAGwAdAB5ACAAZgByAGUAZQAgAHAAdQBiAGwAaQBjACAAZABvAG0AYQBpAG4AOwBzAGUAaQB0AGUAaQA7AHMAZQBrAGEAaQA7AHMAawBlAHQAYwBoADsAcwBwAHIAaQBuAGcAOwB0AHIAZQBlADsAdgBpAG4AdABhAGcAZQA7AHYAaQBuAHQAYQBnAGUAIABmAGwAbwB3AGUAcgAgAGkAbABsAHUAcwB0AHIAYQB0AGkAbwBuADsAdgBpAG4AdABhAGcAZQAgAGYAbABvAHcAZQByAHMAOwB2AGkAbgB0AGEAZwBlACAAaQBsAGwAdQBzAHQAcgBhAHQAaQBvAG4AIABwAHUAYgBsAGkAYwAgAGQAbwBtAGEAaQBuADsAdgBpAG4AdABhAGcAZQAgAGoAYQBwAGEAbgBlAHMAZQAgAGkAbABsAHUAcwB0AHIAYQB0AGkAbwBuADsAdwBhAHQAYQBuAGEAYgBlADsAdwBhAHQAYQBuAGEAYgBlACAAcwBlAGkAdABlAGkAOwB3AGgAaQB0AGUAOwB3AG8AbwBkAGIAbABvAGMAawA7AHcAbwBvAGQAYgBsAG8AYwBrACAAcAByAGkAbgB0AHMAIABwAHUAYgBsAGkAYwAgAGQAbwBtAGEAaQBuAAAAVAByAGUAZQAgAHAAZQBvAG4AeQAsACAAaQBsAGwAdQBzAHQAcgBhAHQAaQBvAG4AIABmAHIAbwBtACAAQgBpAGoAdQB0AHMAdQAgAFMAZQBrAGEAaQAgACgAMQA4ADkAMwAtADEAOAA5ADYAKQAgAGIAeQAgAFcAYQB0AGEAbgBhAGIAZQAgAFMAZQBpAHQAZQBpACwAIABhACAAcAByAG8AbQBpAG4AZQBuAHQAIABLAGEAYwBoAG8ALQBnAGEAIABhAHIAdABpAHMAdAAuACAARABpAGcAaQB0AGEAbABsAHkAIABlAG4AaABhAG4AYwBlAGQAIABmAHIAbwBtACAAbwB1AHIAIABvAHcAbgAgAG8AcgBpAGcAaQBuAGEAbAAgAHAAdQBiAGwAaQBjAGEAdABpAG8AbgAuAAAA/+EgY2h0dHA6Ly9ucy5hZG9iZS5jb20veGFwLzEuMC8APD94cGFja2V0IGJlZ2luPSfvu78nIGlkPSdXNU0wTXBDZWhpSHpyZVN6TlRjemtjOWQnPz4NCjx4OnhtcG1ldGEgeG1sbnM6eD0iYWRvYmU6bnM6bWV0YS8iPjxyZGY6UkRGIHhtbG5zOnJkZj0iaHR0cDovL3d3dy53My5vcmcvMTk5OS8wMi8yMi1yZGYtc3ludGF4LW5zIyI+PHJkZjpEZXNjcmlwdGlvbiByZGY6YWJvdXQ9InV1aWQ6ZmFmNWJkZDUtYmEzZC0xMWRhLWFkMzEtZDMzZDc1MTgyZjFiIiB4bWxuczpkYz0iaHR0cDovL3B1cmwub3JnL2RjL2VsZW1lbnRzLzEuMS8iLz48cmRmOkRlc2NyaXB0aW9uIHJkZjphYm91dD0idXVpZDpmYWY1YmRkNS1iYTNkLTExZGEtYWQzMS1kMzNkNzUxODJmMWIiIHhtbG5zOmRjPSJodHRwOi8vcHVybC5vcmcvZGMvZWxlbWVudHMvMS4xLyI+PGRjOmNyZWF0b3I+PHJkZjpTZXEgeG1sbnM6cmRmPSJodHRwOi8vd3d3LnczLm9yZy8xOTk5LzAyLzIyLXJkZi1zeW50YXgtbnMjIj48cmRmOmxpPnJhd3BpeGVsLmNvbTwvcmRmOmxpPjwvcmRmOlNlcT4NCgkJCTwvZGM6Y3JlYXRvcj48ZGM6c3ViamVjdD48cmRmOkJhZyB4bWxuczpyZGY9Imh0dHA6Ly93d3cudzMub3JnLzE5OTkvMDIvMjItcmRmLXN5bnRheC1ucyMiPjxyZGY6bGk+MTgwMHMgcHVibGljIGRvbWFpbjwvcmRmOmxpPjxyZGY6bGk+MTl0aCBjZW50dXJ5PC9yZGY6bGk+PHJkZjpsaT5hbnRpcXVlPC9yZGY6bGk+PHJkZjpsaT5hcnQ8L3JkZjpsaT48cmRmOmxpPmFydCBwdWJsaWMgZG9tYWluPC9yZGY6bGk+PHJkZjpsaT5hcnR3b3JrPC9yZGY6bGk+PHJkZjpsaT5hc2lhbjwvcmRmOmxpPjxyZGY6bGk+YmFja2dyb3VuZDwvcmRmOmxpPjxyZGY6bGk+YmlqdXRzdTwvcmRmOmxpPjxyZGY6bGk+YmlqdXRzdSBzZWthaTwvcmRmOmxpPjxyZGY6bGk+Ymxvb208L3JkZjpsaT48cmRmOmxpPmJsb29taW5nPC9yZGY6bGk+PHJkZjpsaT5ibG9zc29tPC9yZGY6bGk+PHJkZjpsaT5ib3RhbmljYWw8L3JkZjpsaT48cmRmOmxpPmJvdGFueTwvcmRmOmxpPjxyZGY6bGk+Y2MwPC9yZGY6bGk+PHJkZjpsaT5jb3B5cmlnaHQgZnJlZSBwdWJsaWMgZG9tYWluPC9yZGY6bGk+PHJkZjpsaT5jcmVhdGl2ZSBjb21tb25zPC9yZGY6bGk+PHJkZjpsaT5jcmVhdGl2ZSBjb21tb25zIDA8L3JkZjpsaT48cmRmOmxpPmRlc2lnbjwvcmRmOmxpPjxyZGY6bGk+ZHJhd2luZzwvcmRmOmxpPjxyZGY6bGk+Zmxvd2VyPC9yZGY6bGk+PHJkZjpsaT5mbG93ZXJzIHB1YmxpYyBkb21haW48L3JkZjpsaT48cmRmOmxpPmdyZWVuPC9yZGY6bGk+PHJkZjpsaT5oaWdoIHJlc29sdXRpb24gcHVibGljIGRvbWFpbjwvcmRmOmxpPjxyZGY6bGk+aWxsdXN0cmF0ZWQ8L3JkZjpsaT48cmRmOmxpPmlsbHVzdHJhdGlvbjwvcmRmOmxpPjxyZGY6bGk+aWxsdXN0cmF0aW9uIHB1YmxpYyBkb21haW48L3JkZjpsaT48cmRmOmxpPmphcGFuPC9yZGY6bGk+PHJkZjpsaT5qYXBhbmVzZTwvcmRmOmxpPjxyZGY6bGk+amFwYW5lc2UgcHVibGljIGRvbWFpbjwvcmRmOmxpPjxyZGY6bGk+a2FjaG8gZ2E8L3JkZjpsaT48cmRmOmxpPm5hbWU8L3JkZjpsaT48cmRmOmxpPm9sZDwvcmRmOmxpPjxyZGY6bGk+cGVvbnk8L3JkZjpsaT48cmRmOmxpPnBpbms8L3JkZjpsaT48cmRmOmxpPnBsYW50PC9yZGY6bGk+PHJkZjpsaT5wbGFudHMgcHVibGljIGRvbWFpbjwvcmRmOmxpPjxyZGY6bGk+cHJpbnQ8L3JkZjpsaT48cmRmOmxpPnByaW50czwvcmRmOmxpPjxyZGY6bGk+cHJpbnRzIHB1YmxpYyBkb21haW48L3JkZjpsaT48cmRmOmxpPnB1YmxpYyBkb21haW48L3JkZjpsaT48cmRmOmxpPnB1YmxpYyBkb21haW4gMTgwMHM8L3JkZjpsaT48cmRmOmxpPnB1YmxpYyBkb21haW4gYXJ0PC9yZGY6bGk+PHJkZjpsaT5wdWJsaWMgZG9tYWluIGFzaWE8L3JkZjpsaT48cmRmOmxpPnB1YmxpYyBkb21haW4gZmxvd2VyczwvcmRmOmxpPjxyZGY6bGk+cHVibGljIGRvbWFpbiBpbWFnZXM8L3JkZjpsaT48cmRmOmxpPnB1YmxpYyBkb21haW4gamFwYW5lc2U8L3JkZjpsaT48cmRmOmxpPnB1YmxpYyBkb21haW4gcGVvbmllczwvcmRmOmxpPjxyZGY6bGk+cHVibGljIGRvbWFpbiBwbGFudHM8L3JkZjpsaT48cmRmOmxpPnB1YmxpYyBkb21haW4gcHJpbnRzPC9yZGY6bGk+PHJkZjpsaT5wdWJsaWMgZG9tYWluIHJhd3BpeGVsIGNvbGxlY3Rpb248L3JkZjpsaT48cmRmOmxpPnB1YmxpYyBkb21haW4gd29vZGJsb2NrIHByaW50czwvcmRmOmxpPjxyZGY6bGk+cmF3cGl4ZWwgY29sbGVjdGlvbiBwdWJsaWMgZG9tYWluPC9yZGY6bGk+PHJkZjpsaT5yb3lhbHR5IGZyZWUgcHVibGljIGRvbWFpbjwvcmRmOmxpPjxyZGY6bGk+c2VpdGVpPC9yZGY6bGk+PHJkZjpsaT5zZWthaTwvcmRmOmxpPjxyZGY6bGk+c2tldGNoPC9yZGY6bGk+PHJkZjpsaT5zcHJpbmc8L3JkZjpsaT48cmRmOmxpPnRyZWU8L3JkZjpsaT48cmRmOmxpPnZpbnRhZ2U8L3JkZjpsaT48cmRmOmxpPnZpbnRhZ2UgZmxvd2VyIGlsbHVzdHJhdGlvbjwvcmRmOmxpPjxyZGY6bGk+dmludGFnZSBmbG93ZXJzPC9yZGY6bGk+PHJkZjpsaT52aW50YWdlIGlsbHVzdHJhdGlvbiBwdWJsaWMgZG9tYWluPC9yZGY6bGk+PHJkZjpsaT52aW50YWdlIGphcGFuZXNlIGlsbHVzdHJhdGlvbjwvcmRmOmxpPjxyZGY6bGk+d2F0YW5hYmU8L3JkZjpsaT48cmRmOmxpPndhdGFuYWJlIHNlaXRlaTwvcmRmOmxpPjxyZGY6bGk+d2hpdGU8L3JkZjpsaT48cmRmOmxpPndvb2RibG9jazwvcmRmOmxpPjxyZGY6bGk+d29vZGJsb2NrIHByaW50cyBwdWJsaWMgZG9tYWluPC9yZGY6bGk+PC9yZGY6QmFnPg0KCQkJPC9kYzpzdWJqZWN0PjxkYzp0aXRsZT48cmRmOkFsdCB4bWxuczpyZGY9Imh0dHA6Ly93d3cudzMub3JnLzE5OTkvMDIvMjItcmRmLXN5bnRheC1ucyMiPjxyZGY6bGkgeG1sOmxhbmc9IngtZGVmYXVsdCI+VHJlZSBwZW9ueSwgaWxsdXN0cmF0aW9uIGZyb20gQmlqdXRzdSBTZWthaSAoMTg5My0xODk2KSBieSBXYXRhbmFiZSBTZWl0ZWksIGEgcHJvbWluZW50IEthY2hvLWdhIGFydGlzdC4gRGlnaXRhbGx5IGVuaGFuY2VkIGZyb20gb3VyIG93biBvcmlnaW5hbCBwdWJsaWNhdGlvbi48L3JkZjpsaT48L3JkZjpBbHQ+DQoJCQk8L2RjOnRpdGxlPjxkYzpkZXNjcmlwdGlvbj48cmRmOkFsdCB4bWxuczpyZGY9Imh0dHA6Ly93d3cudzMub3JnLzE5OTkvMDIvMjItcmRmLXN5bnRheC1ucyMiPjxyZGY6bGkgeG1sOmxhbmc9IngtZGVmYXVsdCI+VHJlZSBwZW9ueSwgaWxsdXN0cmF0aW9uIGZyb20gQmlqdXRzdSBTZWthaSAoMTg5My0xODk2KSBieSBXYXRhbmFiZSBTZWl0ZWksIGEgcHJvbWluZW50IEthY2hvLWdhIGFydGlzdC4gRGlnaXRhbGx5IGVuaGFuY2VkIGZyb20gb3VyIG93biBvcmlnaW5hbCBwdWJsaWNhdGlvbi48L3JkZjpsaT48L3JkZjpBbHQ+DQoJCQk8L2RjOmRlc2NyaXB0aW9uPjwvcmRmOkRlc2NyaXB0aW9uPjxyZGY6RGVzY3JpcHRpb24gcmRmOmFib3V0PSJ1dWlkOmZhZjViZGQ1LWJhM2QtMTFkYS1hZDMxLWQzM2Q3NTE4MmYxYiIgeG1sbnM6TWljcm9zb2Z0UGhvdG89Imh0dHA6Ly9ucy5taWNyb3NvZnQuY29tL3Bob3RvLzEuMC8iLz48cmRmOkRlc2NyaXB0aW9uIHJkZjphYm91dD0idXVpZDpmYWY1YmRkNS1iYTNkLTExZGEtYWQzMS1kMzNkNzUxODJmMWIiIHhtbG5zOnhtcD0iaHR0cDovL25zLmFkb2JlLmNvbS94YXAvMS4wLyI+PHhtcDpSYXRpbmc+NDwveG1wOlJhdGluZz48L3JkZjpEZXNjcmlwdGlvbj48cmRmOkRlc2NyaXB0aW9uIHJkZjphYm91dD0idXVpZDpmYWY1YmRkNS1iYTNkLTExZGEtYWQzMS1kMzNkNzUxODJmMWIiIHhtbG5zOk1pY3Jvc29mdFBob3RvPSJodHRwOi8vbnMubWljcm9zb2Z0LmNvbS9waG90by8xLjAvIj48TWljcm9zb2Z0UGhvdG86UmF0aW5nPjc1PC9NaWNyb3NvZnRQaG90bzpSYXRpbmc+PE1pY3Jvc29mdFBob3RvOkxhc3RLZXl3b3JkWE1QPjxyZGY6QmFnIHhtbG5zOnJkZj0iaHR0cDovL3d3dy53My5vcmcvMTk5OS8wMi8yMi1yZGYtc3ludGF4LW5zIyI+PHJkZjpsaT4xODAwcyBwdWJsaWMgZG9tYWluPC9yZGY6bGk+PHJkZjpsaT4xOXRoIGNlbnR1cnk8L3JkZjpsaT48cmRmOmxpPmFudGlxdWU8L3JkZjpsaT48cmRmOmxpPmFydDwvcmRmOmxpPjxyZGY6bGk+YXJ0IHB1YmxpYyBkb21haW48L3JkZjpsaT48cmRmOmxpPmFydHdvcms8L3JkZjpsaT48cmRmOmxpPmFzaWFuPC9yZGY6bGk+PHJkZjpsaT5iYWNrZ3JvdW5kPC9yZGY6bGk+PHJkZjpsaT5iaWp1dHN1PC9yZGY6bGk+PHJkZjpsaT5iaWp1dHN1IHNla2FpPC9yZGY6bGk+PHJkZjpsaT5ibG9vbTwvcmRmOmxpPjxyZGY6bGk+Ymxvb21pbmc8L3JkZjpsaT48cmRmOmxpPmJsb3Nzb208L3JkZjpsaT48cmRmOmxpPmJvdGFuaWNhbDwvcmRmOmxpPjxyZGY6bGk+Ym90YW55PC9yZGY6bGk+PHJkZjpsaT5jYzA8L3JkZjpsaT48cmRmOmxpPmNvcHlyaWdodCBmcmVlIHB1YmxpYyBkb21haW48L3JkZjpsaT48cmRmOmxpPmNyZWF0aXZlIGNvbW1vbnM8L3JkZjpsaT48cmRmOmxpPmNyZWF0aXZlIGNvbW1vbnMgMDwvcmRmOmxpPjxyZGY6bGk+ZGVzaWduPC9yZGY6bGk+PHJkZjpsaT5kcmF3aW5nPC9yZGY6bGk+PHJkZjpsaT5mbG93ZXI8L3JkZjpsaT48cmRmOmxpPmZsb3dlcnMgcHVibGljIGRvbWFpbjwvcmRmOmxpPjxyZGY6bGk+Z3JlZW48L3JkZjpsaT48cmRmOmxpPmhpZ2ggcmVzb2x1dGlvbiBwdWJsaWMgZG9tYWluPC9yZGY6bGk+PHJkZjpsaT5pbGx1c3RyYXRlZDwvcmRmOmxpPjxyZGY6bGk+aWxsdXN0cmF0aW9uPC9yZGY6bGk+PHJkZjpsaT5pbGx1c3RyYXRpb24gcHVibGljIGRvbWFpbjwvcmRmOmxpPjxyZGY6bGk+amFwYW48L3JkZjpsaT48cmRmOmxpPmphcGFuZXNlPC9yZGY6bGk+PHJkZjpsaT5qYXBhbmVzZSBwdWJsaWMgZG9tYWluPC9yZGY6bGk+PHJkZjpsaT5rYWNobyBnYTwvcmRmOmxpPjxyZGY6bGk+bmFtZTwvcmRmOmxpPjxyZGY6bGk+b2xkPC9yZGY6bGk+PHJkZjpsaT5wZW9ueTwvcmRmOmxpPjxyZGY6bGk+cGluazwvcmRmOmxpPjxyZGY6bGk+cGxhbnQ8L3JkZjpsaT48cmRmOmxpPnBsYW50cyBwdWJsaWMgZG9tYWluPC9yZGY6bGk+PHJkZjpsaT5wcmludDwvcmRmOmxpPjxyZGY6bGk+cHJpbnRzPC9yZGY6bGk+PHJkZjpsaT5wcmludHMgcHVibGljIGRvbWFpbjwvcmRmOmxpPjxyZGY6bGk+cHVibGljIGRvbWFpbjwvcmRmOmxpPjxyZGY6bGk+cHVibGljIGRvbWFpbiAxODAwczwvcmRmOmxpPjxyZGY6bGk+cHVibGljIGRvbWFpbiBhcnQ8L3JkZjpsaT48cmRmOmxpPnB1YmxpYyBkb21haW4gYXNpYTwvcmRmOmxpPjxyZGY6bGk+cHVibGljIGRvbWFpbiBmbG93ZXJzPC9yZGY6bGk+PHJkZjpsaT5wdWJsaWMgZG9tYWluIGltYWdlczwvcmRmOmxpPjxyZGY6bGk+cHVibGljIGRvbWFpbiBqYXBhbmVzZTwvcmRmOmxpPjxyZGY6bGk+cHVibGljIGRvbWFpbiBwZW9uaWVzPC9yZGY6bGk+PHJkZjpsaT5wdWJsaWMgZG9tYWluIHBsYW50czwvcmRmOmxpPjxyZGY6bGk+cHVibGljIGRvbWFpbiBwcmludHM8L3JkZjpsaT48cmRmOmxpPnB1YmxpYyBkb21haW4gcmF3cGl4ZWwgY29sbGVjdGlvbjwvcmRmOmxpPjxyZGY6bGk+cHVibGljIGRvbWFpbiB3b29kYmxvY2sgcHJpbnRzPC9yZGY6bGk+PHJkZjpsaT5yYXdwaXhlbCBjb2xsZWN0aW9uIHB1YmxpYyBkb21haW48L3JkZjpsaT48cmRmOmxpPnJveWFsdHkgZnJlZSBwdWJsaWMgZG9tYWluPC9yZGY6bGk+PHJkZjpsaT5zZWl0ZWk8L3JkZjpsaT48cmRmOmxpPnNla2FpPC9yZGY6bGk+PHJkZjpsaT5za2V0Y2g8L3JkZjpsaT48cmRmOmxpPnNwcmluZzwvcmRmOmxpPjxyZGY6bGk+dHJlZTwvcmRmOmxpPjxyZGY6bGk+dmludGFnZTwvcmRmOmxpPjxyZGY6bGk+dmludGFnZSBmbG93ZXIgaWxsdXN0cmF0aW9uPC9yZGY6bGk+PHJkZjpsaT52aW50YWdlIGZsb3dlcnM8L3JkZjpsaT48cmRmOmxpPnZpbnRhZ2UgaWxsdXN0cmF0aW9uIHB1YmxpYyBkb21haW48L3JkZjpsaT48cmRmOmxpPnZpbnRhZ2UgamFwYW5lc2UgaWxsdXN0cmF0aW9uPC9yZGY6bGk+PHJkZjpsaT53YXRhbmFiZTwvcmRmOmxpPjxyZGY6bGk+d2F0YW5hYmUgc2VpdGVpPC9yZGY6bGk+PHJkZjpsaT53aGl0ZTwvcmRmOmxpPjxyZGY6bGk+d29vZGJsb2NrPC9yZGY6bGk+PHJkZjpsaT53b29kYmxvY2sgcHJpbnRzIHB1YmxpYyBkb21haW48L3JkZjpsaT48L3JkZjpCYWc+DQoJCQk8L01pY3Jvc29mdFBob3RvOkxhc3RLZXl3b3JkWE1QPjwvcmRmOkRlc2NyaXB0aW9uPjwvcmRmOlJERj48L3g6eG1wbWV0YT4NCiAgICAgICAgICAgICAgICAgICAgICAgICAgICAgICAgICAgICAgICAgICAgICAgICAgICAgICAgICAgICAgICAgICAgICAgICAgICAgICAgICAgICAgICAgICAgICAgICAgICAKICAgICAgICAgICAgICAgICAgICAgICAgICAgICAgICAgICAgICAgICAgICAgICAgICAgICAgICAgICAgICAgICAgICAgICAgICAgICAgICAgICAgICAgICAgICAgICAgICAgIAogICAgICAgICAgICAgICAgICAgICAgICAgICAgICAgICAgICAgICAgICAgICAgICAgICAgICAgICAgICAgICAgICAgICAgICAgICAgICAgICAgICAgICAgICAgICAgICAgICAgCiAgICAgICAgICAgICAgICAgICAgICAgICAgICAgICAgICAgICAgICAgICAgICAgICAgICAgICAgICAgICAgICAgICAgICAgICAgICAgICAgICAgICAgICAgICAgICAgICAgICAKICAgICAgICAgICAgICAgICAgICAgICAgICAgICAgICAgICAgICAgICAgICAgICAgICAgICAgICAgICAgICAgICAgICAgICAgICAgICAgICAgICAgICAgICAgICAgICAgICAgIAogICAgICAgICAgICAgICAgICAgICAgICAgICAgICAgICAgICAgICAgICAgICAgICAgICAgICAgICAgICAgICAgICAgICAgICAgICAgICAgICAgICAgICAgICAgICAgICAgICAgCiAgICAgICAgICAgICAgICAgICAgICAgICAgICAgICAgICAgICAgICAgICAgICAgICAgICAgICAgICAgICAgICAgICAgICAgICAgICAgICAgICAgICAgICAgICAgICAgICAgICAKICAgICAgICAgICAgICAgICAgICAgICAgICAgICAgICAgICAgICAgICAgICAgICAgICAgICAgICAgICAgICAgICAgICAgICAgICAgICAgICAgICAgICAgICAgICAgICAgICAgIAogICAgICAgICAgICAgICAgICAgICAgICAgICAgICAgICAgICAgICAgICAgICAgICAgICAgICAgICAgICAgICAgICAgICAgICAgICAgICAgICAgICAgICAgICAgICAgICAgICAgCiAgICAgICAgICAgICAgICAgICAgICAgICAgICAgICAgICAgICAgICAgICAgICAgICAgICAgICAgICAgICAgICAgICAgICAgICAgICAgICAgICAgICAgICAgICAgICAgICAgICAKICAgICAgICAgICAgICAgICAgICAgICAgICAgICAgICAgICAgICAgICAgICAgICAgICAgICAgICAgICAgICAgICAgICAgICAgICAgICAgICAgICAgICAgICAgICAgICAgICAgIAogICAgICAgICAgICAgICAgICAgICAgICAgICAgICAgICAgICAgICAgICAgICAgICAgICAgICAgICAgICAgICAgICAgICAgICAgICAgICAgICAgICAgICAgICAgICAgICAgICAgCiAgICAgICAgICAgICAgICAgICAgICAgICAgICAgICAgICAgICAgICAgICAgICAgICAgICAgICAgICAgICAgICAgICAgICAgICAgICAgICAgICAgICAgICAgICAgICAgICAgICAKICAgICAgICAgICAgICAgICAgICAgICAgICAgICAgICAgICAgICAgICAgICAgICAgICAgICAgICAgICAgICAgICAgICAgICAgICAgICAgICAgICAgICAgICAgICAgICAgICAgIAogICAgICAgICAgICAgICAgICAgICAgICAgICAgICAgICAgICAgICAgICAgICAgICAgICAgICAgICAgICAgICAgICAgICAgICAgICAgICAgICAgICAgICAgICAgICAgICAgICAgCiAgICAgICAgICAgICAgICAgICAgICAgICAgICAgICAgICAgICAgICAgICAgICAgICAgICAgICAgICAgICAgICAgICAgICAgICAgICAgICAgICAgICAgICAgICAgICAgICAgICAKICAgICAgICAgICAgICAgICAgICAgICAgICAgICAgICAgICAgICAgICAgICAgICAgICAgICAgICAgICAgICAgICAgICAgICAgICAgICAgICAgICAgICAgICAgICAgICAgICAgIAogICAgICAgICAgICAgICAgICAgICAgICAgICAgICAgICAgICAgICAgICAgICAgICAgICAgICAgICAgICAgICAgICAgICAgICAgICAgICAgICAgICAgICAgICAgICAgICAgICAgCiAgICAgICAgICAgICAgICAgICAgICAgICAgICAgICAgICAgICAgICAgICAgICAgICAgICAgICAgICAgICAgICAgICAgICAgICAgICAgICAgICAgICAgICAgICAgICAgICAgICAKICAgICAgICAgICAgICAgICAgICAgICAgICAgICAgICAgICAgICAgICAgICAgICAgICAgICAgICAgICAgICAgICAgICAgICAgICAgICAgICAgICAgICAgICAgICAgICAgICAgIAogICAgICAgICAgICAgICAgICAgICAgICAgICAgPD94cGFja2V0IGVuZD0ndyc/Pv/bAEMAAwICAwICAwMDAwQDAwQFCAUFBAQFCgcHBggMCgwMCwoLCw0OEhANDhEOCwsQFhARExQVFRUMDxcYFhQYEhQVFP/bAEMBAwQEBQQFCQUFCRQNCw0UFBQUFBQUFBQUFBQUFBQUFBQUFBQUFBQUFBQUFBQUFBQUFBQUFBQUFBQUFBQUFBQUFP/AABEIAXIBcgMBIgACEQEDEQH/xAAfAAABBQEBAQEBAQAAAAAAAAAAAQIDBAUGBwgJCgv/xAC1EAACAQMDAgQDBQUEBAAAAX0BAgMABBEFEiExQQYTUWEHInEUMoGRoQgjQrHBFVLR8CQzYnKCCQoWFxgZGiUmJygpKjQ1Njc4OTpDREVGR0hJSlNUVVZXWFlaY2RlZmdoaWpzdHV2d3h5eoOEhYaHiImKkpOUlZaXmJmaoqOkpaanqKmqsrO0tba3uLm6wsPExcbHyMnK0tPU1dbX2Nna4eLj5OXm5+jp6vHy8/T19vf4+fr/xAAfAQADAQEBAQEBAQEBAAAAAAAAAQIDBAUGBwgJCgv/xAC1EQACAQIEBAMEBwUEBAABAncAAQIDEQQFITEGEkFRB2FxEyIygQgUQpGhscEJIzNS8BVictEKFiQ04SXxFxgZGiYnKCkqNTY3ODk6Q0RFRkdISUpTVFVWV1hZWmNkZWZnaGlqc3R1dnd4eXqCg4SFhoeIiYqSk5SVlpeYmZqio6Slpqeoqaqys7S1tre4ubrCw8TFxsfIycrS09TV1tfY2dri4+Tl5ufo6ery8/T19vf4+fr/2gAMAwEAAhEDEQA/AP0gX7oBWnZwO/4UZ3cj1o2k8+tZFjscCj71G08c+1G47uB9KAGtu65wT7ULznJz7UrNxz1pB70AN2/LnBFLxkDNKGJzxyaQBlweKABlGOaTAVc/NgccmnFAxO7g+9J/rCQc4HcUAN/BsHnrRtI/vZx3pwjxgEZB9aMbWGSBzjGKAGjcVGf5VKAWTFJu27ehHPaj17UAKpHQHNO/h55pFOOvWgDPPy0AC4DcdaTBOTil55HSl2jbk9qAGISO/wBeKfuPqM9uKRevHSms34/jQA/ccdeelRBgDyf0pS3PPXqRTdw3DuaAJGY9sikHy8DqeetIG9+/SlCjJIPPXmgBxbqGApN24jnP44pjZ5rnfEHjzRvDuoR6Zc3scut3ELT22lQnfdXCrwSsY5IzgZPele24HRyuFHzHaOmc+vHWvmrxRr/iv9ob4r3Pg3wprFz4e+G2iuYdf1/TQUuNSuBtJs7OYE7FGcSSjG0nCknNaWofCHx78bvHb33j/XZvDvw7snBsfBuh3WyW+YDia9uFwTzn9yrYGOueT73o+i2Oh2MNpYW629tENqRqOAB0x7e/9escw7HPap8L/DmreEh4cutLhudE3RySWVwWljuWjIKG4+b9+NyqTvJ3FRknFeJfBXwF+0H4f8bQ6H8QPEXhjUPhrp8E8UM2iweTeaizkmJZBjdEq7mJCEfdA+YGvplmHTNSww7SGPJxxRzdhhZ2Ntp9usFpBHbRLwEjGBwO/PPbnr61OMBgM80m09Ocegrj/iB8TNH8AQWg1C5ka+vpTFY6fZQtPd30oGSkECAs5Axk9FBG7HWhysKx5j+018L/AIk/FhotA0WbSZ/h9d28UuqWJuDZaq1zDOska29yYpUVWwp+4pBjADKGNeseFPENn4s8PafrFhLJLa3kQlR5lKODkqwZT0YEMCD3BxXItr3xM8XW80OmaLZ/D+zkjKRanrU63+pRkjiRbSL9yrDqFklJyBle1dH8P/Bdt8PfB+m6Ba3NxfRWSFDdXrhp55GZneWQhQC7MxYkADnj3Oa4WOi/hHelUFu+BRs5HHFKmeo7GtBCkdjQynjBpR3J6ZpSFbGKAGMSGFNPzHIPNSbRQcUARsM9D+tJnb06UNwoOAe9CsD0FACqyspKYwe696RenvSs3zdfwpA3XI9qAD8cUmOCBTl7KR+FN+6T0x6UAL5Y9RRTd3+zRQBJR+NB+bGeRS7sH6UAGd3SmFT64NPX+8cc803dtOcZFACc7sNwo/WpPl5w2R2FMkYNg4zigMvPbvQA5QVwcdqRm/OlBO3rzSP8wHP60AC8gk8tR2AXqKQsQoCjFC5Xsx+lADvM3Lt9KbgsMdMUu7PQsPfFNTqOrcf1oAkH3hzjvik3HjbknuTRz95hgdKa2TznFACq27OPm5pzcNwcCkWQeXyMYrmvHHxG8MfDfT4r7xPr1noltM/lxNdyhTNJjOxFILO3sBQB027d7/hSdayfCfizRfHGh22s6Bqdvq2lXAJhubZiyNglWGTgggggg8ggjHFa5OFyKAE2huQefSk5bvyKcjdcDJpsjhVyeQOcfzpALwOppkmWZQACO5Jx+neqMOuQagzLp0Ul+yvsZlBSNeSGJdgFOMdiamvNHvdU097c6lNpbucGXTdvmJ/utIjAHOf4aVwC81C10u1e4vbiG0gUFjJPII1wPTJH868q8UfHy6lg8n4f+CtV8f3rHbHcRkWWnj/aaeXBKD1RW3c7c16HbeB9E0Ywulq17cq7OLrUpmvLjc2CSJJScdBwMAYAAFa7MN2SCc9S3P4/WsJ1GtjSMTi/Bc3jXUtFnPjY6PZ3lwCqWvhlrgeSpBGGnk+YuMghlCitfw/4V0rw4sg02zispJPnmcAtLK3OWdySSxySSeSSa1nuUZSNo2/3s01Su4BF3ZHH0rnlJt7miiFqxluIwp6HkVpN5lxIwX5UXocdadYqm07Rg9+Ksqu3oK2jF23M5MjjhWPGQCe5p27aMtgD60/PBPTFUbiZZFOADGPStG1FC3Ca6MjCOL5mY4O0ZrzSxs4IvH3ir4gzCPVTY6Wuk6WtqBLJEsXmS3iJg8NJLsQgYyYVFcH4qs1+KPxWaHw94g8Xa1pukanDpPiTQLW7FlotuVTdL5j4SSSQI8Z8uNmUsV3cE17zb6fbadYxW9tbw2ttGuEhhUIir/dA/unnj61lzO5Wmx5B4L+PmsfGTR3vvh14Gv8AUdNeJjaeJPED/wBnaTdsGx+6+9O6nDfMIsZHXvXTXHjzxT4XvnXxLomiyWqw/apX0HVWnube33BXnkt5Y0Z4lJOXQnAHSu9tYliYCPbDFCoDAYRVUZJ+g968S8afH74WeKvFUuhaJq2ra14tskNs+r+CNFm1WTTATuZJZo43jMZKZeFtwOOQDg1rG8tSWe4286XUMc8TpNDIokSSNgyspGVIIJGMHgg4II61OgDZz0NeL/sqeJNPvPgz4a8P/wBuWmqeINEtRZajap+6ubZlZiiyW7YeL5NvDKMcDnGa9l9QSR7VuQLuweelLx1Kkc035SOO1Lu3L0zQA5QOBnj0zRjay5poY7gScH0pxz14NAEfDbwcZzxSBR6c96c2QRkUKpViM5x2oAbzxg44oH0yPXFPZvu/Smrlc5zQAnU5wKQse2Kkb5QDjNRMw8znj8KAFDNgcfpRS+X7migB7AYGCT7VEf7ue+ckdPaneZghc/NjmkbO7kgUAOV+AMZPU4okbb/hTY265FHzDPHFAA3QDsf0p6Z24J4pp+bbmlZivGaAE5VuOeacyhu3GeOKFx0PejcRjoKAE56YNHO0HNDHPGaa2dp54zQApUZzt5/lSruZuuB16UxmPygHgjjmlbLA45/GgQ5mK9OfSk3cc/lSFiuMfQVh+MfFlv4R0Oa+lQ3E3MdvbK217iUj5EX0Pqewye1JuyuyTlvjV8atI+C3h2G7urW61zWtQcw6T4f09TJeancY4jQDoP7zHgY718e3niLW/wDhItX+KHxA8KR/FDxX4ThN7qWm213HHpHgi3I8zyI9+UnuwnztgM/GSV4r174mTX/hnwv4g+JFzaR3fxCNithpLxxhhDNM6xW9vGrEAqJZFPYtzmvbPhh8HdH+HvwttfBE0UOr27W0keqSXK7xqM8oJuJZcjL+YztnPYgVlFuT8irWOL/Zb8Z+FvGE/wASp/B90l1obeJTco0cLRKLia1hkuMKQOTJuJ4xuJ9c17oxIzg5NY2h+E9H8KrcjRtKtNLW7l8+dbWJU8yTaqb2wOTtVVz6L7VpS3McMEksrKkUYLSM3QKBkk+2M1rsMka6SFkQunmyf6uPI3P/ALqnrxz6c88VyV58NbnxtMX8Z3ou9PWcSW+h6c8kNrtAG0XLbs3DA8/wp/sHFbXhWzj1aRfEcyyPLdR4tElcMkMGeGQY4aQYZj1xtHtXTGpvcBsMaRRKiAKigAKABjAx/QdPQdqVcY9KNo7daZJiMFiaV7alalDUFY3SYLDjGB0qOSxebBMhQei061ka6lkd0wM4FW+FAziuSyldl6ox5I/Jk2KBn0BqzbwhNrdW6dOlNnPlXxYrksvHFWYdq9sE9eayjFXNLuxcs1ZVbcSxJz0qf+VRx42AZ3Ka4T4neJNahbTPDXheaG28Q6u7M+oSoJE0yzQ/vrsofvtkrHGp4MjjPCtXZflRj1Om1zxNpOhuIr/U7PT3Yb1W6uVjdx1yqk7mHuBXJeKPGl5K0Vn4Y0ybX9RTZMUXdBalCSMNcuNikHBwodsHOzkEP8N/Djwx4X2XFnpEd1qcakHWdSX7VfSk8lmnfL5JOeoXk4AHWp441O81DUNM8K6XeS2Wo62srS31uAZLOyj2+fMpPRzvWJD2eQH+GuWUrvQ1jHuc34f1pPDeqeKm8Pafc+PfFuqaiJ9YaxmjtrK0uEiSJYDO4CxrGiIoUB5D1cDPGhez/GTUbmY21l4D0WzZSIftV1fX1xHz1ZY0jRs9cAjnIya7rw/4Z0vwnpVlpmkWMOn2Fohjht7dcImTkn3JJJLdSTk5zmtJozJke9Wr9ROx4LqX7PPjD4vaUuk/FD4mPq2gtPvm0fwrYnSYbmMKQqSuJC7Ak7jnocAdAR7f4F8CeHvhn4btNA8K6NaaDo1soWOzs4hGg4+82B8zHHLNkn1rRXZbw/KuX7nOM1yuvfFfw54b1A2Fzqq3WqOygaZZpJc3IJ42mKJWZc9fmx61tGSiZvU5X4yeOvhR4F8YaDD42s4U8R+IIpbTT7+PTZZbqQLtHkrcRL5isxYBEB3MeB0q78I/Dmo6DdeLVeK+svD1zqUc2i2Op3clzcxQ+QglZjIzMgaUOyxliVHpyo5z44eJrbWNI0HTvGWmX/h/wpqfiHS7OCYpHPfXN/8AaFlgXyVLiKEtCoZ8mQBh8qjJHtDN8zfxHJJI6Z/yf09a3UrkbDlBwADgdqPlVsdT9aYGLJyOaGUrnjnHFUA9SCw5o4LHJ4qL27DGfrUg+ZeV2fj1oARpFVsN8x7cUm75jzzSsoZgxPPejYuTwD3oAQt8v9aFznIANAXbkA0uCjEY60AJ5gTGTgU1s5OMY9c05sbeR81R8LQAY9/1opNnt+lFAE0nqBkmmtjgnPTtTs/KAe1A+8GzkUANjX5cbuT0yKX5VPPBp4Ulskc0gPzc/XrQA3jAINDNSbgWAP6dKU/LuOOKAFGWyaD8q470IR0PJxxxR6/4UCDqSc4xTOn8XXmnj7uT+lN3KxGRk9yKCRAOo6496Tb/ALJPtTuNpwKTnj0+lACSAsR23ccV5DrmuJ4k8ZXBimjubbTz9kiVOfLZhlznPDd+h+UDntXp3ibVl0jRLq5wS6rtQKwB3Hgfqa8h8OvFa+Ll8NzfaLnUtOsW1aZpMGKMTyOiAPnIPyMApHTJzXNVv8KLgaV1oUvirW/CsCKFtLDUlv59/wAxIhUlQQf9plPPpXr+OR8vPTrn+VeWeG9USH4gaLp80MgD2NzPFKQcFgY1AJ6Z2l88dxXpVxqNvZ27ySM21eiopZyegCheSfpTpfCEiHW9YsfDun3Oo6rfwafptum6W5uXEccYyBkkkdyPr0HNeD/G3xJrXxI02Pw98MvGWgW19r8DadNHrkF0LWWJ85a2mWPZ5+N6lCcMCBgEV6P4o+Et58SvHWg6l4j1KM+EdAuk1Gy8OQREC8vVHyXF256iJiTHEoxuwzEnAHpV1aQ3dm9rPEs1tIpDxSD5CD6r+fSrlqND7WEWdrBBwojjWPCjA+UAdPwqYfe4NcXYW2o+B9Nkhv7qbWtIhlC2k0UA+0WVvgkLNz+8WMAASKNxHLA4LHotPure/soLqzuIrq0nQSxTwPvSRWG4MrZwykHII69eecTzdB2L0kwj46nrWPcXjTz7FG9QefY1NeXm3KJyT1NVlj+XCkAEVzTnd2RrGNtWaFuoaBWQY65qWONY1AGajt4/KhA3729am2nBzW0djN7kE0Ikw2MnoKfb2oJy+c9qsRL+7Hp6VUvNctLRWYu8xAOEt42lYkDJUbQecDpT5UtWF2ZHjzx1pfw30eHV9ani0/RVuI7e61G4kEcFmrZAllY/dTdtXJ4BYE8VxPwrvI/Gceo/EBo7iNfErqbGO5Qh4dMi3LajYeV8zMk5B5zMAfu5rW+IXjTw+2kXeja94c1jWtK1CCWOe3GgzXttcRrgPGwUHIOeAeuDjpXMX/xE8Qaxp+naV4E8Ea1bz3n+jQ6vrmmmz03TYVUfvnjYiSTC4CQqoLEbSVGazqSvoi4q2rN/4jz6vY6Bb3+meJ9J8LXVs/nv/bKxmwugMjy5HJV4lJIIkQ7lPY9DifBe+8R+MNa8Q+KPEkXhlFaO30zTB4Y1UanCIE3ySuZtq48yRh8uOPKHua7bTPhnokMfmX9lFrd+0SpPqWqxJPPNtyedwIAySdqgD29PKW+H8EH7RGga/wCFvCreHdJ0tb7TdY1jSZre1ttQIhBSGe1RA0qpI42ycFXVhjByYjFrVjbT0R70q/K2OmajlmESruwGzwucZ9qwL7x1pdvqDaZDeC41MAD7Lar50yZ5G5RnaPdwBUd5Y6prN5bKl7HZaftQzBYt1zKc5MeSdqIQRlhlvTHUJz6IOUq+JV1nxZc/2NZSz6XpjR7r3WLaRRIvODbw5ORIw6yAfKOh3Vt+D/C+k+EY5bTR9PhsIZNplMQ+eVgAu6R/vSMR1ZiSeOT2s6dpVppNjb2tnbpaWsagJFGvC+v1Oe/Oe5rQs0Xcze9aQj1Ym+xyfjzTXh1jQvEdx9nk0TQo7u4uop0JeB2QBLqMAH5o1EgPIIWRiOQK3rS7hvreG5tpY7i1nRZYpoWDJIjAFWUjgqRgjHFbHy47MufmB5BFeE+CvEFp8C/Aul6BrjXL6TY65faDBqNvBJPHaxCV5LVZ8KWVfLZY9+NoIGcA5rf4TM9lz1zRgHoQD7VT0vVrLXLKG+0+7t7+0mGY7i1kWSNh0OGUkHB461eXGT9fStEySM5Bxye1Lwx4Jp23nFL5YHTmqAZtDeoGeKVfmXI4o8sjPPGOKQ56Dr3OKAAZ5x1pclmPOB70nIwOfwFO2kKfrQA0529seuab93rzUm0ntiovm9Mg980AJ5h9/wA6KXHsKKAHM20DNP8Avd9wpi7vpTixjUkcf71AD0XrxTdu7Jz+GaRGLHGSTjt0pN3UYyaAHZ6ECkb5lx0zTOhG3gUu3d1OBQA5SGT3HGaVGyuNuKavQDGc0bsAkfSgB3c8/hTVzxuOD25pwXap9TzTCzFjtOOR1oJY9idp9PrTF+XBJOMY20qqWjOd2OcZqNpCqZHO0ZxmgRxXxC1iK31Tw5pDRCc3s8lw4zwkcMZJY/8AAmQfjXMeBdYPiDX/ABdNJpsVl9ivF02C9WMF7uKOJWIZ+vyyNKAvQAg9STWHdi38Y/tM63c71kg8J6Ba6Qvfbc3kjXMuD2xHHAD7sK6T4U6fEfB7zwZRdS1C9vW2jJLPcyZPU+ntXJK92X2KHhyS5tfilaQzyBYJLC7uArNkJHEtuobHqWmcn2UV6F8N5pPEUP8AwkF2I5PtLPLp7IuPKtW4jxnkl1G5iepIwAAK8L+EGuy/Grxd8TPFOjslpDok0fhnQtQmTzopHjDS3b+WRnyneRYm2tkqgI2kCvdfgv4b13wn8L/Dmk+JZ7O412ztFhuZNPUiDgnaEyAcBSq8gZwTgU4+RR25bPf86b/F059ahubnapA5Peq9i3mTO2ScDGaty1sCRoc9R17V5R4Oim8I+LPEvg6GKO20m3dNX0tIU2IlrcM/mRADj93cLJwOAsiY716r/nt/WuL8aQtY+KdB1gIBE6zabcSY+75ux4Sefu+ZGV4HWQVnVXulQNiGPapbp707GSuCTz0U4pGjI4LEr0Pr16flWT4i8Y6J4VW3bWdY0/SBcuqQLfXaRGViQAqKSCxJOMAHrXMjXU6mHbHEvQDAzuP9azNQ1i5aa3t9MszfSyEhppG2wQYIB8xs53dPlUc4PTGa47xn4sf7doHhmwkL3/iC8ks3mhlKm0gihMtxKGx94JsAHBzICDxXoek6bb6PYwWtrEsMUS7VRc8D6/jyTnJJJ5Jroj72xm/d1Kek6HdWe+W91S51O5kwGMgWKJeWPyRrwvBwepOOTWktrHGuFUIueg4qfdSVsopGfMyPZjkUeWNxcqN2eTUlNkk8vAzTsFxWbbkY4PXFeJePvCGtp8cPCOoeELiTTtPkF1feLYRO32K7hMZjgzCeDctKOJEAO2JtxIwK9mkzKwAyCegqhr+h3F7YzPpc0dpqvl7YZZlLRuRkqkgHOzcTnHOM45rKV5KyKW+pieH/AA1pXhifVH02xhs5dVvHv76SPrc3DqoaRyT1wqj0+UccV0UKmG3+5yfbiub8Fa4fE/hXSdVuIVhuLqANPHFIHSOQErIgYcEK6soPcAfWumiBmXpgA/Lg9qwp+ZrIZIxk6nj1qazxHEx/hXnNI0fcjP40zcE4HzZ+8K121ZBFe63ZaXpN7qeoXUNnptnE09xczHbHDEoJZmPoADWF4NjnbS57+UzRPql3NqIicjMSS7di/wDfCq3r8xHas/x5o8Piyz0zSJZ/KsJdTtZbiM9LpYn80Q/RmjQn1Ckd6ufErxVfeCfAPiHxDp2jy+I9Q0uxmvYdJt5fLlvGRd3lhtrYY+uD9D0pc3MO1jmTob/D/wCJFjdaNbxW/hzxLJJDqlpCgRY9Q2b4bpR0HmBHjfH3m8snnJr0xW3L3x74NeVj4z6B4w+D+oeMtJE8sGn7JJ7S6je3uLWdJI98UiMAyuhJyMYOK9ULDcdrZGThvUZramzOSE29Ov5Uoz0A47Um4+3WlrckTeWbGKG+93FN+bk4Jpcgrgf/AK6AG4C5PUmnBjgAj9KZ2NPZgx5agBrNx0wO1MUjyyKf5Z2jjj60ntigBu36/lRS/hRQAq5256E9RSbPm4UCnfeHJxzQrHOCc9qAFXMfrnuBTZG3YUdfenZwcrx7UkjAYOcE0AMGQxHtS7duB360wMN3Byc84PSnsBnOMUAOXhjtHOaUDqM4zz0pNvzZzimLnrkbqAHMM98fWmqrc8456VI3Tnmmc9cDBoEDqzKTnj3qKTaqlFYZAyRipgCVbBw3Q02QfKSRzx3OKCT5l+HOiTJ4p+NOsyytLdSeOZJH8jLMYks7ZYVGMYwCTj/arJ8deNNZ8K/si2N94YV4/EeuWdtpej7iVK3N/PsjPzdCvnMc9sZ7V7BpfhNvDnxQ8WzsUOneI47S8ij8sho7iKMwS5bvuQQHjn5TXnc9xZyfAv4feJby2vNQj8K6hpup3J8vEpW1maC4lZG7qodznspNcslZ3KR6p8B/hDb/AAV+Gfh3wXa3Jv00uHZPePwbmcnMspHu3A9gK9NuJmjjyq5PSq9vsjkhVWEilfkZTlTgdQfcc/l6VLcTDIQjjrVabljJIWkQFm5PUCnWzrDHt7DnNR7nX5QDsPpVC9kjhjeeeVYLeIbmkY4VQOck9qzempZqpfxSAqh3mvL/ANpjxJY+H/gr4mn1WQWljcRCzfUngeaLTxI2Fu5FQFtsTBXyP4gnI61PP4313VLpP7B063sdLSQo+oamjNLcJgYeGJWGxck8yHPy/d5Brj/HFl8Vr+K8l8N+PNEgjucxHTNf8NJNAEYkMA8bBzkZ4YEHAHGaj2yejDlIvjr+0lpPwg+FraxYXMPiXxNeQWdvo2nocHULu6TNuWC8BWCs/BxgYByRXjXwv/Z3+Jui+PNG1nUr/wAI+I/iDfzDUvEWv69FNd3Nja7sGC0xtESsQ0ahBwUZiwGFrtPGnwrZpPg/aa5qqeIdXtfGNvqd3fQ2EVol20NnPt/cIdsaRqsYGMgCMHrXcfEnVPHHhO8g8VeANM0/xJq8dt9lvNC1KU239oW5cMnlzDiKWNi7AuCpDuOu2pUlexT2PWLj4b6Fc+PtM8YG2mXWtNtZrOB0uHSIpJjcXiB2O4A2hiCQGI9MdSpGPbFeNWfxs8W6LotlqHi3wAsMBQvfN4b1L+0GsgBnPlOkbygd/LyeCQDivVdF17T/ABFpdrqOmXMd3Y3UYmgniOUkQ9GH6/Q5B5rsjb7JjqzQ3du1PGewpqtnvmlU/N61QhdpC56VA5EmCM/WnMS/XbtzxSPhV46+1ZsaHQg7mrD+IXi6HwL4N1TW5p4bdoYtlu1y6qhnchIVYsQADIyAknvXQxqdoPOar6pYWmrWM9nfWsF7aTLtkt7qNZI3GejKwIIzVdA6nkPwq1i28O+CdA0q20zVptFs4YLNPEc8cUVrduwBe5QPIJPJeRiQ5XBLjGVwa63T/ih4ZvrjV4LXUvNg0Wb7Lf3scEhtreboYzNt2F1PDKGJVuDzxWt4u8H6R4+8M3/h/XLM3mjXyrHNAsjw7lDBgQ0ZVlIZQRtI6D0o0HwdpXh3wvZ+GrGzCaHa2v2IWsuWBiIIYMTyxIJySckliSSTWCi07o0uaDXEa553D/ZJx9KpSSSTsVVtqk8KO9cVrHgn4hR6jYaXoXiDRLDwvGAs99dWks2qRRBSFjiBPksRhf3kmTjJKnqWeIl8SfDLw9NrN9ev4w02xzPetFZJBex2wHzPHHFhZSgyxUAEj7oyADlLn6ouPL3K/wATPH2jeAz4efWdUt9KivdUW2jlnO1eIJXdskhVVVUsWJ6A1N4F+KXhn4lWt0/hfXoNbitdqzeVuGwNnY53qCUba21x8rbTg1PrHw+8H/HHT9An13T7XxHpOn3dtrmmTE/uWlUbopRk/MpVj8rcMD061k+KPhf4+1T43XHibR/FGj6N4auNCg0uSKTTXuL1JIriWUFQXWPDea3zEZAGAM81EafNG6K5raHmXxe+EuueJvGmp2fhK6uNMv8AUJ9G1K7EbqkVzaNdeRqKOhOCNkNvJkDdvB2/eNfUrsru7LkBmLDB7Hp06fT2rym01rxH4mgv7nTbGztfGvhTUn0y9srgsttqFuVSXbHJnMaTRtHLGx3bGG1sjJqfxR+0P4I8DzW9nr2pz6brVzcC1ttElsZ3v7mUnhYokUmUHj5k+UjnNdMHZWZlLU9OXauAcmgt8vpWLpHiyx1yRYrczwXRhS4NreRNDOsbdCyMBjoR3wRzzWxnHHGPrXRGSZm1YQ5KjGAKf1Qeuab3OcfjSgleSTjPerEGOBxTVUbgdx5qTJbPp9aZtUNkjJ70AIzbuM81EGz9ehqRsY6d6aynd1oATzF/yaKXyz7UUAKxzlSAe9C42jPXtSqO2SaTPfHFADo9z8NSSY2j0pWbbg9OKTf2ByO9ADf4eFx68U49Mr97uKOBznjsKSPBUt0oARc4Py4HcDtSEbZPUYwKey7l4HJ60bflAxyKAE4aMHODTdxVgFJ6UoTDNu5bsMdBShc447YoAI8qrZPeo9pIbBJqRgNgyMc4pnAZsD5qAOM+J/gOXxxpentp+ovo3iDSLtNR0vUlBZYbhQylJUH+shdHZXTjIPBBUGvF/gJfeKtF8ReO/AnjnRBpdtLrF7f6CwlWeCW1lPmTwAg9Azu8e/BaNn4+Q19NMBIy9h35qvfeHrLX7EQ3MaM0M6zwTMCTDKvKyD0IJOR3DEHrWU43Aw/Bd89mz6HMWzYgNZvgbZLXoqj3j4Q+2w/xV18zKPnw2cbskdq8y0TXri+snvfJS21vS55bW5tbkj91MvDxkjorLtYEdQykZNat1qFx4k0+Tz3Xyn3KbeN8pxlWU+voc/lXJz8qsabnM/Fr49eHPDWnw6FoniHSr3xjrUosdNsob+N3DkgNIQjEqqLuY8fw1X13xAfGepLpmo2RTRbeZXuI1Yss7rh0RyMfIPlLIepKiuF8d3/w8+Doh1rW9K0fRpokuJLO++xwwI8ix5eFJAgCSMmQFyN3OMkEVn/D+RbrwX4Y1trmSR9Qlj1ySQSO7NNOplYkjCkYfGDnAUAdBXDWqz06HRGKtoe8SXKkYyzf75HfnJ/PtVXV9ShsbSSczCERBnkeVtqRqBkuTkfKBkn6VzX/AAmkl4Z4nsxDHtjaGZT5jSRuOu3AwR3HvXKXFqvxE8caho+5X0DTGi/tOLn/AE66OGjtWOMeSibXdQfmLKrcbsiqKatEmSa3NLwVcz/EjxFa+M5N40G1hki0ISFla4SRQJr0oQNiuFCxA87C7cB8V6JNbRSbGiZwQPvbjkexqL7Q1vGoEcewcYb5R0xj6jjFM2vKAFZ1VlxtI4PPI+tdlONlqc0pajokYsQx2FeASRk+9TeGrj/hFfEUWn4hi0fVmY26xqVEN8SzOuRwFlALc/xq397ir5cqSBY9xXkmTBxkEYPXvSa5ps+uaVNa+e1vMdrwzhATFKrBkkXPcMFP4VsnZko9NTLd8D/PX360/AHU1ieD/E0XjDwzY6xbq0a3KHdHIMNHIrMkiMB0Kujj04+lbS4Xvg+5rbzLHDnjPFCrucBT0pfvLkc01c0ATSNtxyM+lRMWbOTt/Gl75I5prY9iaAE+8QOtTbPlIX5T602CMp6dampxQmNxtwKjbnj379Kkb68VGfu8nj36U2I4vwjcDT5df0eNUhGlX3lQRqw4t5UWaLgAYA3OoHYIPWuqS4K2okYgt+ntXnsFw1n8cNcsnRhFqWg2l9FJj5WkgnlhkGe5Cywfga7pgzw7O+M1zLR6GvQ5L7PbW3jnUZIFAubuxtJZXGQW8tpUTPHoxxz/AA+1dE1laasLOW4tILmW0mE0DTRK7QSAEB0zna2GPKkGuL0u5N98SvFjsW8ixistPjTJ2hxG08hHbnz4wcd0NdzZxmKM8YLfNWUb8xb2PJ/jd8R9J+F/jL4d6vr91NpGhyT39rc6j5TG1Tda5ihkKjh5JQhQDksnGOa66y+LHhW8iydWXTzx/wAhWGSzHzMVUbpVUZJGAM5PFdHrnh/TfE2l3OmavYwalp85UvbXKB0baQy5B4yGUEehAo1nSbLXrG4sNTs7fUbGYGOW3uolmjkQ9VZGBBB9MVvtsQWvMDcjkdc5znp9eKl3DaPf2rg9A0eb4Z3z2r6v53hC6eOKxhvnLS6ZOxCrbowHMDfwbzlG+UEggL3PODjr/LnP59a3jLm3M2rDlYhioPem5zkd6BJ2IxQ3yg+/NaCD5u3pQueM00PtWm7ecnr2oAk/z0oqPn3ooAm5LYHGKG+ZQe31pq/MzKRyKWPnG3p6UAG5mbngUsjkYBA680nl9T3pWXGD17UAR8GZG3Mu0H5VPB+tP28Hjg+9ICecjFCqTg9qAHABVGRtFDLtyQePWk3DdjOfQU4ktnkCgBmd2MHAob5VGQSKOdu3gdxSDIYZPFACMpaPB49KTd6nmnyf6vHfPBqPllGSOlAEc8ywqzuVVEBZmY4AUDJJPYAV4V4q/ab8S+DfDVz4ws/hleeKPCUdo15bz6TqsYu5Ig3EhtnXJQrh9yljg/dr2HxdCl14V1iGWSSOOWynid4jh1Vo2BI9wCa5YaOLPQbK00uVoHsUiWEbSVZUCjyySRlSBtyOnXtWNSTQjz/4Yr4gh8CaP4p1/SRpniS4SSbV9NRxLJJbvNI8Qc4x50UboT34ZPSuqTVU0rxVZLDN52keIF8yD7oWO4VNzBeMkSRgv/vIf71dJp95HqGnQzmCSIyLu8iddkkLDkqw5wynt9PavPfFGgwabDHp6yva2F3d+dYshYG1mH7zy8j7q7xuVfQuuDxXJLuXE4X9vLRU8Rfs3a7YfZGmha8sZJI0wGIFzGpCkg4OHODjI5rpZLddHj0qwtAtpZWMkNu1vGucIFMYQAcddvT07547ez8nxFo6LdwxiT5Yp7UtvMUw+8me+CBg9wQecg1j+JNFltYZXjizGoHlMnB354J+hwK5KsZSXkbxkkPj0/T45o3kikcgbWZTwc88d+f50vwchi/4QmG9MzXB1GWe+E5RVZ0klZkOB6KVH4Vy3g3xjpfxDsbi50uWOWxt7qS1kuVQ485FAkXPfaxKntlT6VD+zPrieLvB1k9qwaw0TT7XSo2DDZJcrAjTjPUlPkQnoW3Yxiro07SIqT0PZo/mRV3hg3QycYqKby2UjaQwOG28Y/D+vtUypGu3zwobGSucY9vf61N9miZfOkyI8fPu5GB/9au45iBZ41+QrkHIBY5Aqhaay39pPbgIINhIkB5LKxDDH1xz7Gl1S9Fv5dtAoWeVuGUZ2qOr49KwtJ8QW0Pir+xpI5BOlmkkTsuBIhbaWH+6w5HbcD0YVjKWtkUP+DuuNovxI+IPgyUFfNaHxVpoxwYLoeXcqP8AcuYmP0lFewW7Ga5kLBm2gDJHHPPH5V4N4oA0H42fCLxJtkto7q71DwxcnjlLqAywA47edaoef73rmvoRMdRxnnp3POK6Erq5SY8HjGaQN8vr+FAOPQU1jnG07e1XqMfuHekjUCUnHGKX7x9QaDluPSgCX73UUfeAqPnzMe1PNUmTYa3p2qGaQIpYtgLzzUxyaoXl7BHL5Eki+a3RWODUSly6lI5DxysWmyaN4ijRRNp95HDI2dv+jXDpDMD7LuST/tnU/iDxLdxWky+H7aDV9TVgm1pdkEBOAXkbuq8EohLt261W+KWlHXPhv4nsEZQ8lhKyNIAVBRS4P5rV+z26tZW97bEJbXUSXCRqeFDqGCjjpz/9auOUuxul3OJ/tux+Gd/o9pr+pXl42syyI18LN5fPvj+8K4jU+XuXIRTx8m0Ekc9SPiNEviK70qbw34mgitYw7as2ksbFu/yOrMzH2Cnp7iuhtIkt1yDiRhhuf0qdWIZcDa2eMVUE1qxSfQp6B4i07xRpNvqWj39vqNhOMrPbvuVj6H+6RyCrcg9QKut/qyPeuc8SWE3hu4i17S418gXAfV7WKMf6VG+FM3H/AC0j+Vs/xKrA/wANdDJNuYhSGzjGDkH3z3+vuK09SCn4k8L2njDw3qmiXTMkN9btA0qDLRMR8rr/ALSNtYe6is/wJrk2veG4ZL2RX1W3d7HUNnA+1QsY5sexYbh7OK6q1j8uIBj8x6mubtdPfSfGGs4lH2XUo4r1IuMrKo8qY8AcMBC2cnJJroiupDNtiDg9MDFMZu+fvUM5Xg/pQzcAn6citSQYFkHG2meX3bntUpf5euOaYWO3nmgBm1F4wfzNFO3J60UAS5bc2B3xSLknr9OKazZ7496Td74oAlyq+pyMU3jnI4+lIGypyaactnJyKAHfwgenJp38Jwc5qPd8vv2FKuAoBG38aAHbc7T3AxRtIc9u9JuPQdKT+EnPzUAO2/L6kdaThuv5U7d8o+mc00A8lfxoAGc8fL161Cvc9R2qU/d4qJV2SHJNAFXVLcXmm3kMgDJJC6MvqCpBH4isO1aJ9Mt5o23xSQpIhJ6qQMH8sV0bPHGYUdtokby13Y759a8wj8QSxx6WscbMN09tPGxCkPHIyD6cJ0wB81c9WXLuOKucv8WvAvinVbC61HwFqlvp+tztFFf2d3MYra+t1YEgOA3lTBVZBIFOQxDA4XHaalp0ev6a8c8YhEoDEK5DRv8AeBz3KtjBPXGe/GBrHjZtLKolsjXFw+yOFkO+Vs5YKo9FO4noBkmnw+JNVh0e+1K8tFtoTvNnZyEKZPlGC787eenHeuP2sXoXyNanB2+j3Vj40vNS0PVZbHxJqNsst3oc0g/s+4mtSI3ZuCyGUNGu8dlU4OCDreE/j5oPj7xhN4Lg0/UrHxJZ25udW03VLYxfY4wwQEP92YOzfI8RZWGDlelYPxKbT/AmteNvHYf/AImf/CIzWUlusRAlkQGRGU5wHCkKf+AemK3PBfxK8P8AiT4e+HvFOmxki70+FbW6u4TEWQRqz5kIz5asp3ODs3jHXFaQa5SZXK/gn4A+HfhPJrkmgXF3Fo11eG+h0wuzLZPJnzli5+6x2kBhlTu5x0o/AfwHqfwg+Cdn4ce6juLqz1C8mW4sXIkkgmuHeN3YgDeVZd3UdeapfEjw/e6n4T1DXE8V61FrtnavcWk2n3TwWsUkalwPs4O0q+0KQ5cHPXNel6z440vwn4dkuJpSxgFvbvaW8JlnkuJl3RwIg5Lsc4BxhRk4HNJa3sJ3OYuvj1oV9qNvoOhXVnqnid5pIpIWJ2adHHJslnue8YTGNp+Z3KqM5JHrEN3aLp8UxZpY1RW3vgbvRsD1Ppxz2xivn6HRbbw74m17xKfCWm6LaapPGNR1C1dnvJlLBY5pVUbCFLjfznknnFeq+WbCEx3BkeNuAZWJ3kY9j7UKTWgrXNRrqK61Fbhoco6kJIwxgbj27Z/pXk/x68J+K/EGj2ut+AL59M8deGma509GVfLvgVxLZshyCJEyASOCFHeu90bxZp+qabrN9cXFta6XZXs9rFdTyeXHiDEcjyMxwMSiQZyOF9643Uvi3b6xKyeFtG1LxVGqrcHVbPZFpinBACXDsvm9Dkxq4HTtgRJuOo7I+Vvhv+0145/bI+OXwm8Cz6Za+FodE10eINSutHkl82Y2qOSxDZ8oAFkKk8tJ9BX6n3Vx5MLS4GeOF6DP9K+Rv2XPh/ZfCTxn4y8RT+AGstd8Vag0326DU4J/Jgd9xhjV1iKoGLSNzluMbsYr6itfFFjqU00VrNHO8GBNAflkUnoSh5UHtkYPrXT7SLjoUotM0rXUBM5iI+fHJA4/A1b3hQATyegrO+3Io/doqsfpTRI7M24s2Tndj2qVUt1K5S39vUlkwwZTg7vWp1JCgEYP0rOgXdKGDYy2P/r1pMdy9MAcCnBuSdwkkh8a7eetKzU0Sfu8LVc/LIG3N6YzWt9CCV5Nik9qo3EaXGd8aup4+cCntK8jFT90elNyFwFbHuKzl72hSPAv2ivDfi3VpLTTrbxEPCnwxvvJsdbuNNije9fz5fLdC0g/dQsGjjMkZyvmsSMAlfX9ChOmgaeIRbwxIEjjA4RVAAUe2B+lUPihb2d94LvNOvonmh1R4bARpjP72VFBAPcDLH2U45rpFhxMz4yxJJOcDkn/AD61zSj7ysap6akjAZB706KRcF2XJH92mNjcAeO/WlJXGRyD1rYzJFuZJZBGFAGPm3elZSw3Gk61FAoQ6XOu2HA+aGQZJQ/7JHIPrkela9nEuws3U8Aegrg/jRfSw2vhS1s3mW/vPE2mJAtsMsds4eXPI+QQpMW4PBq7dx7bHo6t8vOPQmuP8Sag9v4+8H2wmMUV3HqAeLZu8zZFG65ORtxyeh6117dAeRg57/n71x97qI1D4gWlvG2BptjJcOuwHJmcRpyRxxFJ0PpnjFbR2MmdBu3KvIyRnPrS4G3k03acggcYxS4LcelaiFGFTCjOeaYcfxcfjSdMgnilZAOD0oAduPoKKh2D/aooAn+XjjH40nPXHf1oDbeNvX2o3ZHI5+nWgB6liByCaD3+tM3A47GmswXg8k+lAEv8OM/N1pVJPcZ75FRBl25yRxinKd3TkYoAXAbOcUjuFXOabGBu6/nSt971FAD1PAbHBHXNCrjjoDTd3y5znH6U1W3e569aAHsrJwCBk5OTULbs4zkDofWpGk6nOPWofMLcdR6f1oA53xV4UuvHVm+nf2hLpdvb3NrdRzW6IWdophKQd/G0hVXjnBbHNeJ/G7Q9a1DXvFmmaBrUHh/V4Lm01qwkni82NpJcMFkXjKmSG4Dc5wV49fou1mkhj1BpN5xJ8mf7uxf6/wBa+a/2n9H1vS9d8I+L9I1iHSbSSU6Jq895btNGqSEvakqrKAPOym4sAGkQHg1xYj4NDSGjOe+EGlm18VSL4g1uTxBf/YNz6heRkO7q+X2bcLHGAOI1GMYzkitjxVeP4g1uW7kkmaGODbaKhJiUn+PHcnAOT0A6da5v/hE501axv7/xTPqE5ZooY7W3W0hkLL86mOMElAOu5zjr6Gu08GXjLrU1qyW8kQbc3nSMXVQMfKvQjsfqK8Nc0vcfU7naOqOR8JfErS9Yt9aW8uf7Th04xWF1cSoqLJcOhLpjGC3zouBwTjFX9Q8Mx61HpXhkaPDaaVb2kKX1vA4CpbRnNvZAZxtJUlyOAq4P3xWP4o/Zv0Kz+JHiX4iXes3snnSwXtppcTOLS3uQgSWfysnfIyqmPTBrU1WGTR9JurK0kEmr6kWubhHjDeZuwJAMjCqFwvzcBQe9d38FWucrfOyO+GofFTw7Lpg0gX3hXWpWsrm9fUFt5DblH82aJOrJuVVX+JgxYYUAnmfgv8Etd+Heu3T654ikvNH0u4nTw3pu+SQWUMpJaWViPnnMe2IMc7Y0255rqdL+JmleG/BI1W+iWFIXFrFbRxfvZ8tsiihQD5mbaAFA5AHGBXA+NPid8brXSr/xDaeD9H0jSIUNxD4fvVnnv7tVYFkEqkKspUkhFVgNrAEkYraE+ZaGco23PRPjP8VdL+H/AIJ12TVbj7NDJYuIZlIInlCkC3XBwZGzlVOM59jXpXh2O81TQdOl1OOWeeW0jdom3qxcqMZJwRz2PTnNfNHgjwF4v+Nfhka/8V7GDSYf7ctNe03QbTdGIlhTYqXO9SSrFUJHUYPTOK+pvBmvT6/bX4mEiXVndSWUwkcHeRh1YAdMo6YHuapJXtfUR82a9+wbrGq+O9BuIvHEknw+bWP7V1PwVcySvCgZi8io2WV95JzvHG4kGvrixs7XQYRFHZw2ttABGiQoFVEAwFGOOAOw7VY0+8mk8yKSIp5eOGznFPnuFkcB4/LCvyx5GCMDFbWTViFuMgZZoizN5iEEhWHbtXN+LfCqalqNpqOlXX9n+JtNUzW9xCBumQdYJR/HE5G0oee4wcV08cEs8RAfcd2FIHvwPrVabU4rPa8sAnKyqNqEbjkjPNc8o21ZtE1/CviC28XeGtM1mzTNtqFulwoJyVBHKk8/dOVPuOela/mOBgccce9fFt18UfFng74A/D258OeHdU1SHTfEpGp2tqHFzPbrqFwAkRGQEZigYtkBGPpX0R4Z+I2vf2ho9l4p0K10dtTVlhuLO/M0UdzklbZ96oxdkBKsoIJVhgcVPMjTc9PsMNM7MBlfc8VobgMc4qpar5duhIwW5xjHfp+FSOxVueh5FdcNEZPclZsNTWYcHrURkH9KRWG3HcU7gMbG44BxSc5xnBxk8ZqtqWsWOlLC19fWtoJnEcZu5ljDsTgKCxGSTjiuf8XeO7HwrcWOnfa1k1/VJmttPskG6V5tpJYqBkIgG5mOAB15IqJPlKRfhMmr60tws3+g2Qlh8gKGWW43D5y3/TMAqB6s2fu1qXEy24LsduRnJGR7n61g+HbW28K6FY6RZFpoLSHy/OkJLSNnLuxPJYsxYn1bntlZ5XmkT5xI5YAE9OtczqW2LUWaUepC4mEaqxBHfoK0YbUt833e1ZlraiELufBx85XvWn9sQLhAcDpWtO71ZMuyJ5ZBb4H3j6V5joesf8JL+0N4i065jRh4V0SxmtC3US3zzmWVR/uQJHnt84/iNegZEjbmPzeor5j8XaNrXjD9rnTde+G2uCxm0Gyj0bx008Aazmtt4ngtUPJa6wxPAxGrqdwJIOqd2QfU11cBVCLyDxnNc14chEmoa5qm3Burryg23GUhURg+/wAwfn3rxD4lfHbxP8JfiZD4TktI9XfxqqjwhKsYWK1vFKxz28+OfLCsJw/P3XXoRX0DoljHpekWdpDIZo4UCCQ/x44LHPqQT/j23jd6kS0Lq5YD170/HI9OgpnCsemfpS/dAK9M81sSN8sZJI/Gl4Zjn0oZupH1oyyjcR2oAi/4DRTt3t+lFAEm4vljwOlIo3HAOeM5pWwq45P4U1Zdp9PoKADdy23qKONoNNbIbls9uBTW3BdpPy5oAkVSTuOABxjHWnDLDPAI9TUXmbTtP3RwOaeGJQ/KoXsVNAB/wEk9eaX+L5c470inu3FNY/uzj73c0gFZQM5bFNZgrA9TjBpjzBCoznPTmgyFck59PmqQHFvlBz0PpUWWHC8DB6HFOeZdhyMZ6DNG5fmC4A5xnnmgDjfFnjiLwtrGj6bNDcSTeIbhNNsJIYiyJdfMcyH7qpsDvzjPlsOScVyOuXtlqnxG8VeA/FejnVPDes6Bayy3Ezg25IeRJYJFyNjnfCyhRuOe2MjtPGeor9hns7K5Ed4oTzHVA7Rq2cDngO3PPYc18dfFWz8OjxKulavLbxa3qJWayLSBPtDKPnKljy4yPmPPC46Yry8ZinQ+FXO7C0Pbu0pWEl+AuufD744adc3PizUNd8H6dY3UFgdbvH+1Wom4UnHBC8rnIPygnNe1eC9HsvC8LazPey31xNILO3XlQdzgIFHO4sed3Tj0zXz5a+HL+21rTbfQPE+paDJeo2nCPUpf7RtHYbnCrBJnnjqrKOTTbjVfF3w9u49R8d+LbPULDTWkj03R9HtBBaMzxlU3M6lzK2dqjOAX445rgo1o1n7Rf0zetQlR9x/f5HrHxW+MVtp2pIFlV9EsmIuxbo7OXwCCgQYwBzk8cA9TXUxSN4a8Ay6xcwu+rXSqF0+GMSTSM7YhhQkAkkkcEgBixPANO+Hnw9h8C+HYZLmUpeXbreaqxII85hkwrzxGrYGechFFcN438Vtpt8+uJLdXN3cXLafoNi8irM+4jzpUX+ENjbubOyKPP8RrrUXG8p6nHJ9Il218P6P8NltPHPxBuom8VNCtvY6fE5lt9L35+S2VRmWU9GfbuY5C7VrjdP8Aixrnxi8ft4Ts/DXif+w/s08l5rl1ZyWkVs6Ya3kQMM+YHU4zyDjg4xWh4R1m5mTxD4t8XJZ77fi31V5GdIrJdoZlB4RS5PHU7VJJyK63RbfxHd/EWPxb/aGpJoOh+HfITw3Bt26jPKzu0pUlVEm2NQB0JIGeuXBqUiZXirmZr/xIv/hd4e8PX2qa1/bYt7yCDXZby2AuRayM0Zu0hiAACzKo4BGGbOWArrvgH8Wrf4reKvH15oiNLolrfWttFclDGskiwAs0aFcsh3Z3ZB+7xzWR8bfAtz8bvhqdMZb7wr/a0kMN032Nftf2ZZTI6MC2EJKr0JIzkjPFdt8IfBHh/wCGugweHfDVsLCysYFEcbPukMh5LyP1Lk/MenXp92t4tJkP3lc7bwn468PeNrjU4dC1zTtWm02drW9S0uFke2mHBWTB4bOevXnHStK8jlLSBpi0bbQqYGehzmvMfhn8H/DXw1+IXjC90DTYrI6yLOaRYwBuWNZEY4HOWkLuSeSWz3r1CSRbq3RvLGf4S+CwxweO3HrW1zMWa5ddjciHAPX5eBjHHWq3k7vLCsFOcFkI6k56Hpx+NZeveIrfQ9PuRFGt7cxHMduZAMkEZyecYBJ6dqyf+Epl8tnmtWWRNzhcksMYIz0Hoc+hrjqVox0udMIOWpz37PJS3+DXhWw813eO1kyszFnP+kSgnceTzjnv1rsPGFutxo9+4aFbi0C30Ej7SElhIlRzgg4BQZA6jjvXmXgXVBY/atDthcW39iTi3bcRtKybpFI9jknd6AVstfWk3iBdOuzHMt5bFkjZCuQrKJFJxgkhwcehPXFcftrvRG/s9D2C+bxN4kvJv7L1G00TRJtOguLLUI4FurhriQszBo3wnlrH5eOcsXPTGDkWfi7xb4XvJrPxfoQ1CwjTdD4k8No0sb8gETWh3SwtzklDInpjpWj8HNWOtfC3wtdtw7WEcZHoUymB7DbXZbuRgEEdDXsLVJnK97GVoPiTTPE1otxpGpW2oQ8827hjkcEEdQc9jz6gUuvasdE0m8vFWGee3iaVbeS4SEOVGSu9uF4B5PHqQOaffaHp2pNMbqwt7kybQxljDFgrErk8EjJJqSz0mw023hhtbSCGOIYjCoMKO2O4/OlqGh4D4n03xz8fLDw9NP4K0tfBaeK7e7k07xHHsvDp8CoyXIXcUk8wvKuw44CkHBp/w58EWHgv4yeJ4H8JW/hW8ubOKXTbuO+e7bUbXO1owXPyGEouYkyoEqtnmvo77wAJOSPT9ay/EHhPSfFUNvFq2nw3v2eUTwNICHhkHR0cEFD/ALp6ZqZ0+ZDjLlZieVubajs5YfdAzzUi3Vloqqb+5iiupG2pC5+ck8ABRkn8BVPTfg7omm6kbv7f4iuxv3CC78QXksA68BDLgjk8HNddpui2WkxhbO0gtto2/ukGcfXqayhQad2VKoraHDw+PtQ1LUmttL8EeIp4Vfab29jhsoQCcbl85w7Dr0XnaaXXfG2ueFI5bi+8EazqOnxybBcaG0V5KsZ2jcbcOJCBk52gnAJx2Hom0cE9aYvzZ3L365ro5PMz5jkvCXjfQ/H+jjVfD2p2+qWQkMTvC+GhkHDRyKQGjkB6o4B4rx/4n/Cu4+Ht34t+KXhLW9Ysb3fDrWqeHY7kCw1NoQiTFo2BIdoAehGHRT3arPxS+C/xCX47aP47+FmqaH4eGqafJpvio6pE8sU207re68hGXzZk5UZKnGAxxms747fGaz+H/hnXfh54gk1PW/Flx4NudVGoaforG3uEV2hlbyo9wiVPvtk7Quec8E5WPmPbbrw/o+paxY6tPptpdanYiRbO9mhDTQK+A+xiMpuAGcdQK2F3LjJ4PpWL4e1q08QeH9P1SyljmsryFJreSFw6PGwyjK2ORtKn8fatbe3Hc9+a3iZyJCvPPFOX5l/WmBiRjHNLuLcgc1sSJg8DOae27bjNN5ycjP40192z/GgB340VFtHqv5UUrgWScdCRkUi565GOgp231Iz9Kasfy9fmpgN2mPjOQDSOwbkjgGl+bgMfujmkY4XdjK9TQAbdzZ28dady3Cio9wO4DnNLHkk7T7UAKxCoN3HbjpTAWAI6qelEmVXAJPaoZZP3eAec4GVqWA9nEfPbp35pykbipHPU5pm75CGYYBHGKWNwxJIwM9cUgCReMgDd35rN1rWY9A0m6v5keRIE3+XApd2PZVUckk8DHrWmuQufRsiuC8USLrviJUxJJY6KyTPCiFRNeMAYgrfxbQQTxt3MueVOJlogM6GPUYbKCzKW+teIL6Zrh3nXyolJb5nbAJVI1KoByTtABySRyXxO/Zc8GeMvAOvQeIlWXVp7VmfxNdQiS5tSu50dMfcSInKxrgADk5yT7B4a8PvpFvLNdMsuoXIDztn5VxnCJ/srnA7nqeTWrcRxyRtG6q6MNrq3IwR0x71Eaa3kVzOOx+X80Pjf9nP4tW6/Ei4uNQ0y5tl03TPEyxbtOto2kTfdMy527lHJYbugJxk16/440WHx98ZvhXpKxQPpMN/Lrt38+VeK3jUxFccNud0fsMJX0B4qk8IfA/wDpfhi2ns7IatcNZWUGoSee9zIxaR92QTJtUntwMDpXz78KdWXW/j34ZntU8rSl0rVRabUVVcobcOU+Useud2eh6AYrzJKnSrRppHoKNWtSlV7H0d4l1iLRPCup6n8ot7GCafJOxN4HAPoM4zXyN4e1jWYdWufF/iO/iuItsej6LpWl7V8qFn5lxIAFBClieNsac8jFe2ftDWvibXdCsND0G3V7W5uIRcBAPNlcSBliVTwFO05JyOueBXK614D1e60XULy7U2dwqm1iWGQEefIcytIxGSEXauR3L+gqa0pOVkjCEVy6s2rxmk0bR9Lghll0/fALozbJfMWP94wOBznYvI4Ga6/Tdat203Uo7i5Z3lu1hduQflRXYEdMfMMkAdRXDW8d9q3iKS3aZdPtbKxjdI4wwLlySGP1RF693B4plhd3urWfiqS3sZN8M0g08CVFd5haxo/XHVgOpxzWEZsbij2PxF44sPD3hm21DV3ktbW6ljtxOULLE7A4Z2A/dLkffbgcZ4rl/E2rX/h66HiPT9Mu9Yk8pUvbGyBaeWFBlXj6BpYwWO0H51+UHdtqv8ABzQvEXiH4X+BV8cXf2rWraWO6uIY4VgO0IQquMncF3AlsDcR0HFdpqmnzaHMRaqsNhv4it0xsXJLKMD1zx712yuopmK3MC38XR/EbS7DXvCHiNfs8RbyriFC9vM33ZIZkBVuvUEq6tg9cg9Pp/i7V1srdr3Q3t7tlI8y0vI54lbb97nBCkg9VyM8ivJdT+CWjXXiy78VeHtX1fwTrl0xlv7jQbjZDekfxTwSKyOxXcCwUHrXfWOk/YbKSG4vbrVhuaMvfuOVYDI2qAMHHYfTvWcqnKtGUo6mZb65e6lqheDw9C8IciW8W9R1wzEFsqoDEfMdo646cit9dD1JtPkubvyoryMZi+zbvL2EcgqclzjIzx34Hep4dvPtF1FHhYbdXMIWFlyNp4JQDIGBjtXfPGJIQG/dRpgl05bI4yvHoa4oRVW50N8jSPnhriTwv8VLG6e4Cad4ls0tN9wdym+gZ2jQ5ACmSB5NvTmIinfHCS80XwXqHijR5LU634bQatp0aKXM8sKnfEyryVkj3IQMHkY5rlfAtrrHxG0v4lw+Ovsn2CLxNdWenWVkptjarbOu2ZZATtk3hWDDkMCSecU7wpeePF+I1lpevxwa54cs7GWS38Q2gSCWS5LAKbiIthWCblDINpOSMZwsaU3q9jWOux7z+yPrmp/8Kl8LaBr9vFZ66ukR6iY49xXZNIzEEkD5lLrlRnG4c16H4N+Lng/4hX+o2ega/a6hfWFzLa3Nnlo50kjba+EcKzrkZ3qCp4OelfOviT/hLL74l+AU03UjYaRHPNYavbRuI5rq2dBLsDkjIEsEYYKAzK7Y4Brvfiouk6F8Odf1fXLKa9tNPs3uGW3cQ3BCYYCKTIKuDgrhgcgV6NPEXirI55U7PU9+H0oXBcY4H1rgPhP4s1HUfD+k2PiOdJdcls0uobgfIt/AyqwkUHrIoKiRR0b5ujCu3W42vn7w/lXXFpq5hazL6ttI9KCwGDtJpIyG6Z5GfrTl3HPFbIQuFz2U0qr8p4z7elJ060q4HQ5GaZAcdBS+tI3Xp3o3dKAAd+ccZzivKv2oPHGo/C34D+N/F+kaPZ6zqOl6bI32W8O1HhYqsuWGGKhWL7QRu216t68VHcWsV1byQTRxyxSKVeORA6sD1BU8EfWqS1A+Sf2Iv2jPBXxK+G3h3wZpdvdaLrOh6TbQLYajEYvtcaRKGltiSRIgPvuAIJ45r6kjwwwvNeO/FmO98CeNfA954U0C21uC7vIdG1bRbMLG1pASBDfoq8xrDudWwMFJAP4RXsEZ2KMZI6Ak8+vf/D0qraiuSsy8gjmmLxkDJPb6UrbnxkUuMN2x0NMQ5WG3B+8etM4G7kAdhUnGCBwtQsf3nTjGQaoCLzl/yDRUvmP60VIFglxjjnoajVNx/i69GqVl25w2SfamOvT1qwDpyR+lMLkmntHjB4qN1xjb680AJu2qQDhu/FJ5g24yMetDMFYfPg+maJJFVsE5J5IzSAGdF5LDbmomVj8o4GfvU5m3LtC4HXmh8MoYhQw6cZxUgRsDu5PH07VIo+QfTKj0pvls2ODjHWnLuXHIB7ZoA4j41eNdT8B/D+4vdDtY7zX7q4g03TYZOV8+eVY1kfHJVNzOQOuysv4c/wCj+NdS8Mw/bWtfDlhbvNdXSAC/uLlpHMhOPmcBCzEd5uRwK1vi58M4Pit4NfQ5NTvNFnFzBeWmo2O3zbWeGQPHIFYFWGRyDwQSDxXS+HdNn0nR7S3u76TU7tYwJbySJY2mfu5VcKCeTgcDtUNPmKNJm2sB27Y701gApDEBT3PH60rEnpkj8q88+M3iA2fh5dHjA/4mubaebeYzDAVO4gjnJGQD6BqVWapxchwi5y5UeJeNYdN+LHxFi8TXVrFcwabG9p4e8xd21M/vbgMOMyHpk8Iq+pri/Hnw3FvqXgbxXqsMthaSa0thaQW9y0TxWM6NCrHGCrNN5TZ7rtHc16tJ4fvvEWpaX4c0BRpcLSx3F/cRp+6hsY2AaMH+/J9xR6Fj2Ncp+0h4RuvE3xjeO11S5tEg8HZhsIpTskuGupDCzJnnaYwR7hfx8WnTdV+2meg6vs4eyj1PTNc1iPw7opvXC3E1uJbuZmYtwsZO0MB/eKrxk4PtWX4xuH0Pw9pFtc38WlPPdQvcytOkRAVxLO2W4IADbhjkBuQay9P1iz+Nfhnw7CZSkd9a2ms3tvEShcCXIt+OQDJE4YDnERU/eq/4g+H+leO/Ell4n19TrejadaubCwulVoVuN5Y3O3BDEpnBJPCjHWvQ0Sujzne5zmk6gbzxFql8kK39hqDSO00jYREBGwDPVdmMHjngZGK0fDM39paLqk73Ucifa7hjbQc7tx+UEE5zjHT1rlr7x5B4O8I32tanbJZwabGymJYgjSs4CxxbByWLFFHHJIxXoDfBC88I+HdD1zRbMy69Dp8aa1pMc5H247d7yRMf+XhHZwucBwQpxgEefCnKom4nRzJNXN/4R30d14Is1lkVprdfss6rv3QyoArpzzwce/I9a6m5jjurU+THud+Mtk9K8Y8B61fQtrOqad4d1TwlqNzeCwaz160eJLqZVT9+0RbP8Wwsh3EL6BcW/EHiT4uXAtf7Kn8JaM1vu86G7tLmZJztwEBDqYwCDg/Nndg9K6YySjyz0M3F3vE73WNAuGhK2sasHUjavDL3Bx2/Cs2PQ/ENzHbRraKk7LvDT3R3Io7NjjJzxkH8K1/h741l8beELLVhFLbXshaO4tJoihjmRmSVcEk4DI2OSCCp5yDXXcFd6Es3GcKcZ9OamdGMle5Sm4mFoPhtdHtf3aQvMT5kjAffdvvsT3PaqnjzxxZfDTwjf67qLxpaWMe75jhWwPu/iQBxzk1t3svk2sk1zNHAkfzvI7gDaOSS3bA71yeofDa1+OS6bNqksg8BRP8Aahp8alJNVnU5im8wNuWBfvoFw0jAMeAAZjDS0DTmu7s8d8E6FcaV8MA2p262mq6o11f3vzf6ma6d5JCR6jzAP+A4NeJaN8cfE1vqF5o+veFtTuvEFoxjl1DRIIprG7IwomzuGzdjcU7ZNfYGqfsi6Xqt5Y+b4z8StpVoyumnzSQSoZFJKs7Mh8zGRxIGBwM9K9E8HfB7wv4Jaae0sFu9QuTvuNRvlSWeU4AJLYCjpwFAAwcDmuaOEnO8anU6fbxj8B83fDvRfGfjbXLS8tPChluNNbEfibXJvs9nFIcGQQQJmRxjgscBvWvpDS/hpbR341DV76XXL1QfKjuFC2kHzBgUgA27lIGJGLMAMZrs/LxjHCgY254x2pVxvwTgV3UcPGkrI5Z1JTdzC8TeF9O8WaWtlqNuSkbrNFNC5jmt5V+7JHIvzIw9QRkHB4JFcvcXvjHwcl7Nd2w8cadG/mQf2fGtvqSISxKMhIimKjABUozY5XPX0sWIZslzQ1jGwGQetdDg3sZ8xw3hf4maV4gkjRP7T0u9kAX+zdZ0+aznRs4KkMuM8joxH867PT9YtdUtY7i1u4J4GO0SROHUkHB5HBOQc+mKwfHGt/8ACNWunx2tidS1LULj7JZ2fmiJGfaWZ3cg7EREZmIBJ4A5qPT9KmubdRqTJJIG3CGGMxxRHuFXP6sSeaUeaLDRnVGRUYBnjG44UMeTUq54INc3NodvcbG8gPJGfkdyQV+nNSrazRqFNxKWU7g2854rZNkaG/yucilVjzkd65nbqEUqzLqEjqP+WbAFSM5xjt+FPubrUJbcbLiRG3KCbdE45zk7geMdfYmtF6EnSfM3QGsy81+1gtxJE63budqRxNkORnPzDjj1PSssaS80kMk9xcTmM4+eY55Pfp+H0q6kKqmFAA9OlWSc5pXh1pvEE/iPU4baXW3ja2ikhiXMFtu3LEHxuPqx7n6ADplYBcYwT60Rwhc5yPxpXwu09/TvQALktgE5A59KauQzjHBOeTT1UL/D8xPoaTk43dKsBxTkAkcj7tROoPyZwq9KmbDNnoKZJhmzjIpAQ7V/vUU/an940VIFpnKk8H8qbuzwRz/s1LIoXI4x3NNHzNxjGKsCFmY8gflTDJ1DrzU2euNuP9mkkQ7c0AQ79uOF4NGCu7mnBcAc+/WnYLZDHH4UARL8rMSAQev5UjMOMHPtTo0xnPIpWjHbgn+VACgMe/6Ubfm5FA2xjbnjHc0IoXgZ6UAN55BOD24p7MqqBux+GaQqFAIY+nTrQzN68+5pAZfiPXrDwzpNxqWo3C29nbgF3wc5JCqAB1JYgAdyQK+e/FHiD/hIPFl25L3M27Z9nhw3lNyCoJ4KjaF6ZO1j3r0z4n6rPbhXQRXENu6tFCy/euMnDbvRB0H945/hrD+BOgaXrFn/AG5Z+TfWELmO2lUh1MisdxVj83B4OfTntXhYyUsRWWHj8z18LT9lReImvJHoHgnwq/hrQYYZxvvph5l00bMQWPOF3EkAdABxxXknxlt7a0+LWn3T22+W40SEK/3Q5ju5CFzjkguD1/iFe/soj5z8vA56f5618q+KPjLZfFHxfb3WhW12um2drcWQe/sDDI06yoXkQOcsgGFBxhsNzxk91eMaVLkR50bzm5Mq/BHRtN8K+OPGfgWeBbA6yG1rT7m2ZUlktnZluIFIz/qZJWxjos9ez6Tptz4m1G+OmSSadp2nFrCB5IPkllCgOfLcDci/IquCVbLehrx660uS61Dw9reUe90K9S9tVdt29fmWaFhwSskZZeT1Ck5xX1PYXUeoWcFzbOXgmQPG3GSpAI6ZHQ/zooNVI2ZM1qfOvg39keVviFF4r8f+I4/FU1ldNdWWnWVt9ksmfjZLLFlt0iYOPmIyS3HAr6OkUNx6ccr1Pepec4wDx3o2navOB9a64xUVojJ3OV+IXhnTPFHhu5tNasINS03aWmtZ0LKyAZOD1UjGQRyCAe1fNXwW8J6xo/wh0y01e9uJbyUSXlul/M7/AGWCSQvBA8pJLsiMo3HOc9cYr67mgWaGSCRNySAo2TwQRg/oa+fLib+x9Vu/D9wkvn6biNYZT/yxABikDdwy4wfUMp5U1wYuPu3RvS3Ok8F6jF4b0m1ku5FRNVuSTcNwFuDtVQxIyN5AAPTIA711l1rlhpanzZgnl/ejUjfk5OCvboayNF0iLXPB8dtqOn5S7ieK4gnX7w3EFSPw4xznGOaxtd02/wDC+lx3EOn6r4njjKxLDaGJ7xIwMru3sPOI6bshsDuck4vmVNKJa+PUTwnqTePviBJ4buytxHHDJquo2MkYkDW+RDDEMqQUdw7P3O3HQ170sHkqE2FMDAULgAcY6Y/yPavmfw78LtI+MFwPE134Lma9shLZwNrtzJaKcYI822jcswySV3gkZJHXNanwj8Ra34I+Nes+Atdjg02xl01L62tra4eWyWTzAomt2k+aNJd2xoW+7JFkE+ZWuHvGPvIVTfQ+hRCCBupRGNpAHtU2z2wP7vTB78UbT2rtsZXKLJtyOlLArM4KnhfaoNSla1KFQpDHqxz056U6xvo0mjtpnVbiTOwFv9ZgEnA9cYOKhWvYroaJ46j3zSsOgPSl2/KMcU2R1jjZnwI15JbpWpJx2rIuoePbMMiv/Zlg0gYrlkkmcLwc8ZSLP41uRqqqOML9Kp6faFb6+u5fnkuZc59FUBVX8Bn8zWiq/MSeP5URj1E5dBjBWYHHPakXLZBIOKlZfmHYfpSBTzir5SbkJTOOP0peCp45zUzZGMMBx3pHXPLHHaqsBGMrzuxS5OMYxzT9wXIHNMcHjI47GmAiqVYc/wDAaRtp25G5h0b0pYQGXpnPrS45zgHJoAXrwCaX7y8jJHFCgHAJAFKQVYDbkdM0AIjYXoMdOabj5iGP6VJ2GTgU1twIJP0oAi2j2/Kiptq+pooAefmzjvTPlJpxJz6UnC9TQK41ec8ECmM2DhRnFPXrxgL3FebeLvj14X8J+Ip/D6/btZ1m3j8y4tNMt/NaFT03sxCg+wJI4yOalyUdWLmtuei7umAQabJ8y5+8enFfKXxH/bHvY9Dg0rSfC2saF4g1WcWkd401vMLUFSxkUjcGkx0RlxnJIOK5bwV+2h4y8DX3k/E3SrfWfD/IGuaFF/ptqoBO+5twcPwDlosEFfugCs3Whtcj2kT7WUFfb8aXj+I15L4f/au+E/ihbT+zvGtiy3TPGjzB4YldQpaJ3cBUfDLwxGe2eleKeM/2nPEnifx94z8OeCdW0y3Og3rw/ajKJSwSNCu0KdrqxJ5Y9mAolUjFXG5xSufYx2qwJ5pB/rOPSvl34N/tKeK7OTStL+Klnp6i/YQxeJtHIFpFOScR3KE4jVuAJQdoY4YLkGvqNRuweeO/THP9P85qoTjUV0VGSlsLtO3nGPrWXr11LDZzRxS+VcyKREcE8464Hp1/CofFvjPRPBOn/btd1O20u2+cK9xIELsqF2VB1ZtoJ2rzx3rgrDxRrfjLwPL4gtLAW2o6nCZNHsbk7GjjkUGHzuThsZdsfTNTVqKEdDWnHnmkefeJNFv/AIreMV8K2kEsfhDQx9nu7tblo2ubl4yBECOW27hu/H1Ne8eAvBWnfDvwnp+g6RZxWdlZx4WOMYDN/E/qSTmuW+DPwzf4f6JIlxqr63dXErXEl06bcykkOQMnr0PcnJrrfG/iu28DeGb3W71WeC2CAJEMs7O6oqgf7zLk9hk1xYWi4RdaoveZ6WNxKny4ek/cj+fc4H9oH4n6f4J8Myaa2sJpOoagUgWbzNrxRu+NwODtZvmVT9a8XmWSzvNEkt4WmiW5NuqSYDMDG6qwBOdqsMYHpUN/u1zxlqesahfLfTNdbIpHCBVO0cn0AQooHXAzzkkyaJ4Xfxp8QItGW/uLVr3T7uGCZoleISR7J4JVHVSrIRgdQSK4qlSVafkYRiox1Oys0jvIYpkXzSFA2sCqbuxyD09q7T9n/WGtbXXPCVwbjzdInW6tHuTkvZ3Bd0UHuI3WWP6BfavM9HvVvprhb6H7Jqun5sdR09Zdxt5lGGUN16fOrcAq4IrrvhNoN5L8YH1wJcLYnw3JZO24+V532qJ1BU8htoYgnqCeldGHbjU5WZ1EuW6PePm/iwfSlKEkHgc05F3R7WxupyqNv6V65yDOW2dRz2rG1rwjZapfR6kLeFNWhgeCG6kQvhSdxRlBG5NwB2kjkcc4rdYHaCnX3bFKyt36nnpio5b7iPMvFT6/D4i0Sys9Jv54VMl5Nf2Tp5BaNAVtzk5/ebmAJGPlHIqSbxz4at9Qt9M/tiOTVrq6Wyi09EYzmZ1DhCm3K4U7i3RVGSRXpPl5Ug01rfYpkAVnI27iBnHoe9T7NF3OL1bwfFpt1p/iDSJG0vUrSaF76S1GBqFopIkhmXhXG0syuRuQqNpGSDD8U/2f/CvxkjafVptStL2W3jhTUtGv3tpNisWXG3gj5ieR6cggEd424AEAZAz04/H2qpp0L6OZkhd5bQnMds2AYj3Ck/wk9j07cEilyWGmWvC+hyeG/Dmm6XJql9rUtlAsDahqUge5uMfxysANzHIycfrWpuK8k9Oapafqy3lok0ttPZFgR5Vwq71IOMHazDnqOenp0our8xMBDH5uOucj8qbskMo65DM11pvlLuTzyZDuIwoRvz5qrq2ltqWnyW3n3Fs/8E1m+yWNh0ZG7H68HoayYbTxlN47W8vNa0l/CUdm6x6bb6e8d4bglcSNK0jAqFBGAo5aup68Y285rPluyjy+z+JXxOsbHVbGX4bf25q1jfNbWmof2rBYWWpwDpcENueI9AUCsC2SpwcDrdFtfFWqRw3fii6tLSZDuOk6K7NbqQP45pFDynn0UcDg10pjLckYpQq7QMc1rGLIbGbeMcA+npjt7daXbuXLEU7b1wMj+dOX5fatSRrAbF7rTRtFSZB6Hmk4wOaAGBQ2RjApWXtgmnBQG46ehoZeOW4oAi2/KAOD3GKaWwMDFTHt3FJtGM4UfhQAzhev8qBg/N1qReep5pcjcDnn60AMWMZyFob1FLt6+5pAex6470AJnO3GKZv7YPWnxx7gcgZ780ZLYAPbvQAm72/Sija3r+lFAHyXrX/BQbw7r2htL4E0DVNXv4xGtwdWiaztbKUsAY5XAYswyc7BjjqOlX9H/bSv/wCx/Eaax8PrmDX9Ci86SGx1BJ7S4QxNIk0cuAzIwXn5cg5BwQK+dNN8Q6m0KWdl4Xjga3RfJuLO/I0zK8MC6xKRjIOxVOcY4waxvFnw+1jWr2/0ZvFF9Pq2tWy/2q9qRDYabp+7IRAw8x3kJYKS3zDcxAAFeX7acmeaq0mz1P4pftefEGx8I6jqXhDWfCniSK4WS0kk04SmXSZvkbeqrnzcI+TnncOARkV5P8PPHniDXvDd1q0Op6Td3uoXExV9QsZ0uJ2WYhwSG4+YkgNgjdn1Fdp4R+Gei+AfD9nptnpTTwWdxuCzZiZGL4MmWOCemG9hnHGMS51jTvBPibWdKeyhsNL1InVhPcSEiOV38ucuVzhS6r8ygY80E8HIxlUcluZyk5GT8YfGU3hnwpJfeINKubexW4gkiu9PuFmQTK6vGZlbbIoO1h8ueGau9urXTtft4JtPaRhdSiVmt41BVJVyg+UdAuOTzgZ61T8TeBvD/wAQNNjh1LTre+WBDPBAjyBUk9fkI+bGB2HTFQ+HtPsvCPh1dF0mKRrC3gaO3t/PaSVNjM6sSG56sAD0yOelYuScbdSHLQ5d/CieC9c8SD7BM+h6jFBDcWmVVJ53BUmJSDuUggHd3YDIxldn4Z/Dfwbobz6r4IhitI7pBBI3mFjhVyV2ljhlbPBwecY9OgW4lXTc6okbWaoq/Z7p3Z33Eg7sDIJHbOeD7V5ppnhGCTxxJrFnqN1o+p2V9bW97bWkY2XSTGTy/PjdvncBMecCPTrTTurXGmem65avqEdnaMdQu2UFmhwUikGDlWTJ49Bg9D17+/8Aws+Oln4L0e00jxNOqaVCsSWeoW6+YlpEQAizbckRjoJMcdGxjNfOl7Y+ItP1jz576xvrRZE85oVeKUErt5DFlwc+o4+tSwzPby20l1DcRSXgDSttZ1TLDbkqG4I6nGOQOKmnUdKVy4zcXdH2d428N+G/ipcaL/aFrb6zp+j3kWqWcvmb4xcKpCSDaTuAVzkcg8cVyet+IL3VPihoul6VYSalYWlylnqk0Lbfsc1xG+184OdkUbMQccSofavFPh74i8T+C2nPhf7NNp13L5x06ZiLANgktHtwYXbqSoIJBypr279nr4teHfEzal4YFpf6F4ytGa81Ow1YqZbpnOGuYpV+WaMkKBj7oCggV239vJLY9WhWhytvfoe0WsMdrbwxRIEhiRY40HYAYA/lXin7ZupSaP8AA971dqWsOu6Q16zRGTbb/bYw5wOmMjn8+K9vj+b7q5HYiuT+Lnw30/4wfDnX/B+qF0s9Xt/IeSMfNEQwZXHI6MqngjpXoy1Vg21Pjfxd8J59H1zU9d03xPqcVrqmq2klpokIVIEupHiSaY9fMDRo3yHAXDEDODXsnw3hh0f4leGVaJ3uZJLuJJlT5VUwuWGM4HTHTFNm8A+I/BK+FNH1zUIteuYUcjVLdGijuDEmxTJGx+WQ7w2c8kZB9Os+Gfg/UtW8ZWPjBbnTH8OR2sy20EEcouWuGOwyMxbYV2bhjGc85ryo037VeR0uXunJftnafpXgTwHqXxLjtbkalZRrbXf2NWxdRMrLH5wTn5WKYf8Ag+XtXZ/s1+BYfDfgWHXrPxJqevWniW1tNSij1CZZfsytbx4jV8b3CkHDOSQDg9AT6j4g8O2HinQ9Q0jVrRLzTb+2ktbm3k6SRupVh+Rqn4H8H2HgDwXofhjShI2naPZQ2NsZiGk8qNQi7j6nGSfXPSvUUIp8y3OdybVjaVWWMtlt1L824OSdmMbeOvrTlI6EfhS+nPPbmtBC4+U4+970LjAyOcUu/wCY4B3dxRuHU8UANXO7pz9akOUbnrTdw3dKVfmUnHOaAHfeYAHHGabtPJKil4/H60gbjpk0ALt3cAfL/OjysL0HX0pN3y9KGJ65yKmwDT8vb86co9Tk/So2+9j2zT9wHHbtRYB0n3aOePT60n8selLk/hVADHaOD+tI2CAB8uenFKM7RkHPsad+FACKAq9KVuxGAPTFGM8Zx+NMznAB59c0ADMN1KwJyc8dqVgfqO1J6g9aAF5VQCCcikCjaQB83Tk0q/NzmnKCAST1oAZ09uMfSncFeF5pWzmk2/WgBuTjOP1pvzbs1Jjnrj8aRsAHnvQAxV/ixg/Wmr91t1SbtwH+FIzBuOaADJ9DRS/jRQB+f/izWrjw0ssFuhur+9iaK2t5lXyR5aEyyyccRxph247gDJIFVfCSp4X8NWSzSSajcXca3F1dXBV3klfDOxI6jsApxhQOK81+K3xOa1+GWoeJJfLjudYhFjbSODG0NuzcKoPIPLMxIGW45CivSH8USTWenz+RC1rC25LpXTbMpGFG1RkrgYIHHbGRXgPRHjE48QbrWP7PhxueN5bgrv4xtyeR0xjrkHtgVhalpwutY0/VZ3QLbvLFL9oO1BDICjw43fMS5jce4FaOpXUFvdSzNYNPFcYYjy2UYwcZ3AEkAHoTjisLxDpM2vaRq0cN0J5ltWmNurL/AKOYhmNmGRhRgnJI5ArO7IuWoZrHw9ctPZSXT6Lv8y4s0OBadAfLXkyIpx+7+uO4NfVtL1G1vL/7FeMIr65jmFxGp/0ORlQckdfMCkjjnOO5FVrPVry81a2lSNVidQ0RmBMqArnsuAegwB1HXjn1z4VfAnTvHPgvUvE17aXmo63DrWy0zMwSOOPy9+1MgEHjhu6j0q4Rc2VFcxyF5apJZyW9ozPAz+eYAVhfcx2qWx93APAB6ke4ri/FGhW2l32k67qukyWJsNVt7DUPJJWS8SQOV8wFsFRJ5S8sMcMeprvfEWmzaafsV+06RROvlShvL3zbt7AcMXUZGdxOccdK4f4u6WmreBfEkMLc6v5NzNfckZTad0aghVOehIB4zjmklyy1HrF2Z1R1NdJsrc28RlFvFHJcRs63LHBJLFwyrk+nIyOx4qxHrNk0wls4CscRJ82Qj93v4YKWKjPTpn9ax7OTUYbqZrS9aazkOyOFrMM6vuJZ2JGckkEnIUkkZqCaOZY5SGfa8YELSxYkTOPmRSeQScEE5GQcYrNibKMuliz1C4mmNnpUtjgv80ofau4sOCoPf5cMSckHJqHxJ4ks7fStB1CG4HhrxNa3Xn6Fr0kYjNpPISuMEZKMSNyt/CW+gu3tp/Zym+1G8mvjcXASJpVJZNxI3sQxJHAPHHX1xWZ4m0/SdY8MQW2o6WGsvMDCC8RxC6Y++PuswJB78EGqhJxdxc3Kz71+AXxSj+L3wz0vXZY0s9WUNZ6rZRk4tr2I7ZkAPIXOGU91dcZHT0Rc5ORx2r4V/Y2a/wDhX8SLfSJtRuNS8P8Ai+JoB9qPNtewIXgPUkq8IePc3zMYkz0zX3TuVuc7ievPPrn+f5V71OXNE9SnLmjc8w/aB0PxfqngM3fgO0s7/wAU6bMbmzs9QnMUc+UeNk3ZGDh9w3HBKAV0vwr0W58O/Dfwrpl7Z/2fdWumQRXFuxUsk4jXzNxUkZ3ljwT97rXVsRjgHODTcsMHtx1q1FJ3NB3AG39QaRG3OoJ2+3rS5bcVI980qoGwUIxVFXDb8x60jMq8EcnvQMFnBbnrQeOSM470DHDMfHoM03O1gAcZ5zT+PLPBP4VHtIbk446UAPZvmwGPtxR2JOTmgKGUFh36elOz5YJzhQec0ADHaueMDnJ6D614Z4y/bY+DXgfVrbTtR8YQzXMqq5/s2CS8jhVlyGlkjBVBj1OR6CtL4j6hrnj7XovB2ny3Wh+H5yz6jqtrIEuZ7ZOJYU+X92shZY/MzuIaQgLtBNbVNJ0L4a+FLbwp4O8OWv2yS2eHT9JtLZFgjAXHnXBKkLEDglm3Mxyo3Ems5S7EOXY9G+HfxD0P4reDNN8VeGbw6hoeoqz2115bJ5mGKNlTgg7lPHtWtretWPh7TXvdVvrbTLNQS1xeTiJBjry3WvnL4V/APVfh/pxjsvHuraZd3UrXOoWvhy2itdJa4d9zvDayJIIRjAOzaDjcQDkVqahrfg/S/EEmmW8UvxA8Z25zLYx3Md9cwFjjfK0r7bZCQP7o7KD0Ee0J5maVx+1poGpav/Z3g/wt4u8fSBtpvtH0ox2A6A4uJ2RSBzkjI4OM1Lof7SN+PF2g+H/F3w38ReC3126+w6dqFxNb3dpNcYc7GaNt0e4J8pZRnOMAg1T0TxD8QfEWp6nZvBoOj/Yoo1Plma+SKcnPkmQeSsjBDk+WNqkgZOcU3xx8P/G/izSbSJvEPh2G/s7lb61uP7KmDRXCKwjmXFxwy7mIByM9eKn2jDmZ78mTHzwf8/5/GlAO0foa8UuPit42+G+lwv4u8OWviO1jVY31TQbxIbmWTAz/AKHMFDEnokbt245ro9W/aF8HeGSf7ebVtARYzI8t9pFwYUAAO0yxqyA4PQnqtaxqJ76FqS6npSrt65NL/KvMrP8AaY+FGpW8k1v8RfDzheWWS+SNx9VbBHUdq73Sde07xBYrd6VqVpqlk3C3FlOk0Z9tykjPsSDV3Q7ovqvSh8cchaaPu9M49qBkD0WmMXb3/rQRwcH5aTluOwpdhPbC9uKAEVTt5GKcchcADmlwflwaQd80AAPHTBpOSc9R6U7aMkUZ5IoAZtDYG3pTww3YwBxSFT1ApNoXj1OaABunBpBlgKdtpvJ+nvQAvmf7tFJtPrRQB+YnxU8PJ4g8B3y3ELOz3NrNHEiJLhklTcpGDx6YHfBq9qlpcWWpfZZLe51O3nlHlSSkstoo6NuB45+XHOOeOcVH4mjiuPCN6JL6Nlngt42IkI83MyDMYbrjjPTI3VvalqFvqFxHPE00kMjFmmW4WNY/m55XOc4Jz1OM1843dHhmPHNqOufbLG7ttv2ffuW6DPu7blkB4BPc8n2p1vpkhvLaLzv7OurqIPPKsisXb0VcEqh6EEc/hSnxFBomoC1jvnuNRgdkSXeZ2AOeT1UnkL78D1qxDfXFx5tzJdJp8OMgRRbWcDAAAHrjjPJ57CpCxT0vQdO1WYy2OoTWslq/keYZmaSfbJsDuw6kk9gPvA4r7z+FPgmP4d+BNN0ZdwlTzLidnYljNK5kc5I7E4/AV47+z98I9Ut9cu9f15x9jllS+i02+UmdJGSPy3ZSdqghXJz8xPlngLg/STZ27vvHr+vtXrYaly+8zvoU+XVnzj8fPhsmkauniG1to1s5d3mTCJM20xbdkHHRyxx9T6CvC9a1i2k0/UkhSMq0UsI3R7VAaPKtn7rEEE5xk5zX3Z4otBfaLc2koytwPKzjlc/xD3HUe4FfFfj7wmvhPW1sfE80Nu8ZMlrqmoKrQXUYOQIyw2iUAglGwQQdoI5GGIp8sroirTk9UcTJ4gg8U2aPcahbJolzZmaazaZ1nZGXhW6epxg8c1z1g/iq0sJ7PSprW+tVVIzDfK32vy04UxypkBsbchw2Dj5sEVL4b1Z9QsZZBLazLHeNb7ZYkLRCN/lzGcsQQoIORnK8YNLNbu3i6Py4WumaxYpKsnlRtGJULkpnDHbJjjpmuHVM43dElt4mW4W3isb65W+hSKN472MBo8jL4KN84yCwIPQZPOBXRNJNeS6fcBl1KRZBAJ2YEghg4+QgjGcc5/i9M1Xh8EyXWi293FFYzxzsZQY3k2RLxjaBh3ZscbRgY61g614zHwxlv49dvD5t1KptruCGNYXYYwmNpCSZzjPUDPUYqo3J1PS7ea6+3DVEtLiG7tblb1Zp5PLEUlvMsu8gIOm1xwv8R6195KySLvX5Uf5lx2U8jk9ua+C90+t+HZ3mtJ5nW1mx5mCvAOSzAAYJ6kEdM5Ga+7NOmaTTrVioBaFCRngEgHHX8utephb2aPQw+xY2hmBJzipDkAYzio4R97cuOafhmboVGOxruOsQsqsH3/KOOehpVk3sew9jSMq47n6UvqTnH93NABKx6DA7ZJ60FQ3XGeh5pFVh33d+aUqecBc+1BY7gkrjj3pm09ieOOtK3pmkAC9DjvnNAD13Dqx/wrntY1E6hctp8Hm7VAaadcbFwSPLz1ySDkemaPGHiSTw5b2+zTbq/W4do3NswBgQKfnJJGSWKKuASWYHtWfDONJ0sLOS/wAuBHuaR2bHCjJyzfw88n86zlLoS2cxZ6zb/wBoeI5rALean9v/ALHitw4wrQRqSGPVUHmNIc84bjnbWpb6VYaYrrMov7q8IkmmZAZLhgMZ25OFHIVegHHqSzQtCa21S9uo9KtdJN5M13cXCsPMmkfGRtx12hdzt1IAAIUVq319Z6FIsio8lzcSCKOGP5pp36kDJ5AALHsACfaszM4X4iave6fpKxTWzSXeoSfYdL0GzuGR9QuGDYSWZTuWEY3OyY2oCS3YzeGfB6/DLwjIscNte+JNTlVpriKARJc3rKFXC87IkAwqnokfckk9Rp/hgw6rLrt9J9q1iWIxq2d0dvFnPkwDHyg7VLEffZQT0UBEhjvPF06EHfpMKgcnyxJOCeP7xWNce29qm1tRWLNjYGz06KyhcsActKUBMjEkszf7TEliQOprO8UeLLHwtau04M12uz7PZIQJrl3fy40QHklnO3PbOegrdkv4I7g2sMwe6VBIYVB3hc4yf7o9zXN6v8PtP8TeLNL8QavEsl/pKTw2PkuVVFlwHJBGSxC4POBnpzR6DKFhZrHeR3mpKNY8TrGVYabGZFtFbkxRMThF7EswLEE+ijavrfWZrcpaR2VmzAgG7Z5tp5wdqFfb+IdT077a2kSwxwQR+VGhGFT5VHPTj+vpUhRtuXOACMbef1pKIHk1x8Df+Eg1WGXxR4jm8SaYTmfQ7zRrAWl0ByBITCZSAf8AazwMn143Wf2coPhRqB8W/BuO88LatDew3GpaLpcpa11G1D5uIxBKdpmKfcxt5AAI619C4/d7huPqc9evGaiafylHy98epp2SFoa3gzxxo/j7Q01bQrxbqzMjQsuwxyQyKQHikQ8o6ngqeRkdRzW4W449a+bdY+K19H8VNI0n4f6Rqet3Q1KGPxRLYW0cmnw2h+RjNKxX9+nykBPmCghuBivo6NjIu4rtPbnP6j/PNbRlc1jK+g9c7icE+hHanD5fUnHWoyfmIB560oLbuGAXHpWhQ9cc5FGcDNJk5PGfej09aADcWOe1LyeM5oC4bPNH3T0xQAbAvbAxgc01uT0/HNPUfMeentTeOf71ACbvXrSklgCKYrdiwPFIrfe285oAk+eimeX/ALNFAH5jeJPDd5r0lnYSXUU4kvFaW5aEbiFy7MPlyRlVXAAznvU9rHDJBeLdXlukUcKrFp7HlmHbY2F3AYOSMg4x77N3p8GpeKLBJmdFs7Jmhty0qOjSMBhkxggqj9OmOO9SaX4TbUr+Kaw0bfPbfKsgC7lUhgEyeN3Ug9e1eByOx46pmJDp091qEaws9smxXdreOPzH3OQQD6ZwMDrmvqj4G/Am5sbmPxP4uTzLlWD6Vo8hVkslxxLIQBvmOeMghB05zTvgH8E7vQrga5rkdkIBEv8AZ1nEheQMSWeWVyBk5PygDHJY8kY+gVU9evpnBz+PrXfh8Py+8zrpUeX3mVYbULfyylfnkiUMxzn5S+Mn2yfzq1tKcEZOMinYwR25rnfHOq3Om6XFb2KI97fSrbp5mGVU6yuR1ICA8erLXc3yo6jj/HGvJD5uswwLqMsKNBp0AkKDJPJ3dMsQDuH8KgV478M7G5174oX897paeNP7YmjtdTiuNv2OytIsl7sowKtmXEcUYBYhXYEBTXV/GHxymg6XeC2s2uxYJHDbWkZCiS5kISKEHsSWUc9M16l8IPh6vw58E2mmu3m6lLm61CXcSGuHwXC56IvCqBxhfXNeNBPEYm9/dielG9HD2trL8jzXxN+xl4J1i3UaVdaxoLK/mrHDd/a4VIOdoSdWKrk9FZePSvF/iV8PL/4ca5oNtqJs/Ja7aztYLbasl6skLASIGIGNyjcFG5SOeMMfuaTDdDz6+lc94s8EaV4yTTm1Gxt57zTbgXljNMoY28wBXOcHAIJVvVT7V6NShGS0PInTUtj8+tJ1C80eZtHtlkhNzi4jhmuBMPLc4kjZuo2noQeA4HbiPVvC1jr3hnVYtZ0o6nYuI4orOxtxK7uzBQFUZYOTtww65ycda2/iN8KfiX4J+FNv4sfQo317R7jEmgxohwqExz7ZAd0scqHcnOcBeCRius+HNjc+MPHXwiZJbiwsm1Uaq8MLGHesdrJIisAMuCwXKt6HqMV56otS1OD2b5tTh/h3Y3Ooiw+Hnhzxe3iTVNclMEVjNIHu/D+nji5kvtpPzxbWjVWw5JAO7Ga/Ru2hSGMRqNsSgIq+gA/nWFo/gPw34d1fUNX0nQdN07VdTfzL2+tLWOKW6c4JaRwAWOQM56nn1reyF3Yc5+terThyHowhyoVmCnOc9uaRcsuSeD6ioSyecdrtuxnGOlOEw+VSwxjgE8/XFalku4KuN3tScf3uVpNwZQShx1+Y4pGYeZwOO3GKAHlhzz+lBYY4y3eg/d4PzelLuBxk49B6UFIRm7EDPU8UvmBWx0yMLUR3bhnrXEfGL4iwfDTwPf6s80YvW/0XToZGA8+8cbYl59/mOOiqx7Um7K4HI+I/F1hD8RLC51C9lhsbq+nsoI5Qy5kt7Z2AABO44DsAeWZ+BkCuysNNj1C8i1jUwYV2/wCh2c2EWAMOZHUgEzFfl5yEAIXqxPitt4m8P6Kvg8arqzaudLtBf2OkaJps15Pc3BUq95IxXjG59mFXAfO6ui0v9ovwDpOoXFpJaazaXZcSTm4sGk25Bw5bc3br/IGuXmW9zHmR6fqfiyw0XS3vbqV5IYyo81YmUO7HakaEnl2YqoA6kiqOnaDIuvWmqavIX1eUTLbwqo8q0iOzMSnHLYA3P/Gf90Aefa18YLLxNoPhLxlaQXsXhy11xnu7a4st15LbCKWKGdYc71xO0cm3GQMMfu12esfErwlb+J9F02a7iufFLlnstKjI+1R7kAcuM7Y1CtglyO4GSKfNF9R3TOxvLqO0s5JZpY7dEBzNO3ygep56f55rzz4bW3jK907WZ/E8Nvol1f6nc3Qn02XzWMBISAR7hmP91GjbmG7LkbRya697Oxmvkv8AUbmCZw6eRHIwaKE54KqeC+c/MctzxgddaS6g/wBYWZgVJ3gMwPXJ9Sc9qrce5U0vTbPR7NLe3jk8lRgl5S7nuWZiSWJzkkn6Y6VajjRmGH+YccrjP6+lZtx4itPs1y8ZmneEhDHHEwZmKggDIxznqOB3IrmYvGGs6xrLWFtolxokCxb59V1CaJ1TkAJFGjN5j9TklVXb0OcFXQtjsbq+ttOTM8scAZgvmSOuOTgAc8nJ6VBd6nerFH9isXumZiC0siwKmBwx4JP0A/EUWtjDapBJPL9puGAPnzFWckgAnjAGcchRVx23K2G284O3tRqBz15p/iXUJEZdW03ToSmHjj09rjBzyQ7yqAPT5SetcD8WvgrrPxS8Mw6Uvj/WNFljvjcNPYIkAmj2BRA6pt3ICSeWzljk9MevBwWJeUqwzlscEdqiyioVdlbHzEhT09TScb6CPK/Cfgv4i/DDw1puh6BrvhfU9Ls0+W21HR5rZzk54limYk9fmZSfU10N58WvE/he1jbUPh7qGoKMBj4evYbgsTg4VJTG2eeOcnFdbdatb29pJKrGZUTdttlMpYe2OtYeoeIJ5LeMxaBf6gZF3iNmht9p7AiSQEH3oXu7MS93Y6LwH8QtF+JGi/2noty8io/lXFrcxmG5tJQATFNEfmRxnoevUZ6106j1OK+bvFeqeI9L1az1nwz4GvrXWmlSBry3vLV0miLAN58HmBpFAHA6jnBGMH3Hwf4ui8UWt0Ht5tP1Owl+zX1hP96CXG4BWxiSNlIZZF4YHsQQNYy5tGaRlfRm/nnAyeM1JyOTz7Uxn3AEntS7vlBOc44rU0Fxwc8UuRkYORim+YdvIz+NJyG7bf1zQBJy30pu35jgn6+tGWZWGQPpTeVjA7igBrL8pYLyKXeSeBjjNG7v8vtUe4cYzn2oAk3UU3cfQ0UAfnB4c8VXMDeIdU1O8tbSwWYRGa4VlRY0+XAJGCN+4Ady3HQZ+nfg/wDDHU9ea21jX/Ps9DCq9ppsiCOa6GODKpUGOPHIXhm4Jx0PUeBf2b/DHhXULLU9SEniXWbPmC41I7ooWIOXjh4QMc43kMw7GvWivzeo7dj754rnjTtqzFQE+7jp6eg6f/W4+lNPzYycbeoxUm3vg0zqRgcd66DSwY6V5rqmsf2h4v1m+mSRdO0eD7FG4ZcM3EkzgfUKnP8AcbHBNdr4m1oaDo7zpIkU8hENv5p4MzcIPcZxx3rxHxTqlp8L/BP9lNHNPbw2j3t9cTSF3Ybi0jE/xOzsx555FcGKreyp+ZtSpupNQHfDGZfGHxMvYRaTQWulxx6nc/aQHVpZCwtgO2QA8nttUdq+gCSOCMegPP8ALvXHfC7Q/wCy/DYvZTuvdXYajO5GDh1Aij6cBIwq49c12Y+7/wDXq8LS9nS82a15KU9NLDASOMU9d3API7n1pNvc8ZpGbOBj3rsOYhvreO6tpInjSVGGDHIoZSPoa+WPCn7P/wAQI/2uG8TXl5Bpvwy8OvNe6HbW7hpriW4t/KeJuMhELStg8A7QpIOB9Xtxxik45wOfrU8qvdkuKbuxeFOMcY/yB7Un8JAHJ5psTbiSeCODTXkSGNnfCIuWZmIAx3zmmFhxVtvAGOhNGFxxweze1clrHxa8G6Kri68T6XHIriPYt0jsHY4UYUk5JIGPWsnWPjTommXMUFnBqms3E7bI4bK0LMWxkBt5XtngA1PMurFoeirhR0yMUhkBwAc8dK4j/hMtfuZoIdP8L3MocAvLd3CRIvXI6ZJ7fj7UWtn4x1i3j+1alZ6UCuJjYQCSVWBYYRmYrjATkg8lhwRS5uwHcs3TjA9qZNdQov8ArE44+8Af/wBdYP8Awi5uFjS+vby7ZUAdpJyBIcHJIUDg9eD1FWF8MwnbkeWBjKqoIyPXOfai77Ac1qnxg0q3EsenWeoa7fRsyNZ2MADhxgYbzGQKvo2ccGvB/jd8E5Pjf8TPCF7qGqb5NLla5fSGfeTbsPmhSLIjDcANKcswyOBivorWvh5Z6pCVtri50u43eY0tqw+c4Aw64wwxxivCPE37MninwbZ63f8AgK90nWtTupzeJF4ohkmkZgvEYmMmV3EMMjCjcCFOK5qntSZXPXvC/h3UfDdmtnollpum28gDSTTTs8jMAAN21TkheBkjAAGMdOf+LniTxz4R1XSINB8Nax4vgvkkFzeaZBGVsmG3aCHZcliTgbgO/NfMOi+NvGdzbrqXhDxL4h8M2f29tI1Wz126a5tdA1Lad0F0hDOiBwgWeP5CHG5Rgk+hfCn4D+NtUkv9c+L3igeNNZmkP2E6brFxFawWjw7WRI4wi5J3cgHII54qPiXLYzvfRIx/iBqg+GOsSeP/ABf8ENZ1QwpH9t17ULuGWe2i+4DEkZZARu7svHG7Ne6aFoPhn4seBdJ1zwvcW+nQ39qlxYalHZx3DxKRldqSgqMMuCuDyGXg5xnah8BvBGvWC2F7oMMlr8u9GaUvJg/LvO87+eRuzyoq34D+EMvwwuZ18O6r5OkTMJF0maCOO3U7cHHlqNpJwSwHbkGlBOL2CKaZ2nhvXJlkh0LXPstt4njt/NeK3Y+TdIp2maAsBlSRkpyyZAbjDHfVnKyfLsGePcV534q1nRtYs47Lxdp19oAin8621CXf5UMqE7Jo7uHiJj/tFCdxUhhkVq2Pia80mCJdZurfUbGTm21+zUCJ1P8Az2C/LG3oy/I3qvSui6RZpa0txpNxJqVnFJd4ANxZo2PMx/y0Tt5mOq/xBQPvAVoQ3CXlnHOhUxSLuGVKk5A4IPII6EdfpyKcqtJmQ/Om0EFTnORkY9QfbOexrP1PTbyFbmfSEhS8kKtJDcOfLuCOMkgEq+AQGwffOMhgSa7pR1LSbq2trh9PuZojHFdxxJI8DEYDqrggkHnBGOK8/sbXxx4F1DSX1fU28aeH/Kkhu7yysUtr6BgwMUzQKxjlXBKv5agjhgD8wr0HS9Z/tJJAI7i3uYWxJb3SbHTBweO4JPDD5T2rkvin8XtB+FGlXFzrl59ic2kk1krRs/2mRSVEUYHzM/Rio6LluMZqXYTOqu5r7UrGG40S409hKSvnTB3QLjnaFIywYcg4xnnFZk3hmDUFca+02sIqCR4pNyWxIBziJCdx68NuqHUvC7Sb9W0HUY9Fv3XzWmSMPaXWBwJo8hXXn7ylXHZutR6J48tNWt0iuJLaG428XVpOJ7KUjIyk6nAJ67H2t7HBNK/cR0FrqejQ20NlbXFrafKVitsiFgB2EZAI+mKcU/dtHn5zz8ynnk9O1UvEnhGw8WaLJpmsWa3UDjcjMSGifOA8bD5lPP3ga8e1D4c2/hu8gsf+El17wrbSyKLX7LfM+mXEgJO2SInETvuXKKyI5+6M8U22B7TGrGTmN0Tpu29/asbU1udL1yz1+BbiQ2svkXEUY4mtJCFKHA+Yxt+9XJyMt6151b6fN4B1KKz1DwLHri3CmRr7QMvNIVALl7eaTIIJztR2JHvkVh6X8R/hJ4q1jU5LHRtQuvEeiyAT2MWg3b31sWVhkxxgnkKRuxjOAam4rn1YuGwOvGRgY4/yePanBTu2kfnXkH7L/wAWG+LXw9vb5orqMaXrF1o6vqEYhuJVhK7JJYcAxMQ/KH+79K9eyfMPHHvXUtUdCd0Kx+fBB/A0m0/LuHy+xpW3MpH9KCreWvy5aqGA5TI+lB7cZo2swII296TJaQAg9OvrQA1kXknjHSkRty/KQtSP8zYIpqxgA4oAPJf+/RRRQAqqeSTk+9KqlRn1pMYzjtRu+YZoAXdg4xSD7/PTNObvwSQeMVy/jvxP/wAI3owEBVtQvZBa2MRbaXkYEkj/AHUDN/wGk9EBzviK5XXvEzXEkmNI0fcsO1j++uSpEjeh2D5B7l647wnHYfEXxy4SEXNuFWe7adAVECkeSjg/32HT0UmrPxT16w+HHw0u7zU7mOOzIS3ea5lWNdztg5c8KSN3PrXi3wR/a+8L+HPCFjdPYPqtz4g1e7e+bTrm3hOmxxt5cKtHPIrSZQBtyDaSx9K8eo/aV0pfDuztowfsnUW59rSAsQS3P3jnr9OKBlc5YDJryKb9oexu1ibSPD2ray0q5/0e3ZlibONshVSB2zg4qe48Q+P9ejtIYLSy8MkybpRJsuX2ByNoyGUApj5gCe1eiq0NomMqM0uaR6ruDMMncegqlquuaboqodQ1C1sQ7BV+0zJEWOeihjkn6CuKv/Der+LNDu9L1XUpniuYirtaq1uw54AkBBHf7u36Vyvgv9mXw74Rmk+zaZZyJMQZZL6WW6kYY6FHbZkHvye9VzN7I52dHrH7RPgjTdRj06z1K58RanJ92z8P2U17IeO5jXaAMcl2AHHNQ2fxT8ReJIBLonhEWlqzgLda3qUSBl6DEdv5rc9gT2PNdRb+AdKt7W7hlg+2QXKeXNFcHerqOg28DHbFb+n6Xa6XaxW9rBHb28KKkccSKqqoGAAF4AAAGPan77FqcA2j+MfEum3NneazLojTSt5d1oBETLHnABklDncQMkqpHoKZF8F7Hy5IZ77ULxZtrSSXd5NPMWGcne7njnG0AKOeOcV6Yqjd+tHGegNPl7hY5e3+G/h6xtJbaDRNPht5o/LaGGBUidckjcoGCRnvk9a27DTbSxiUQ20NuoG1UhjCYHYcDpWguNoBOcd/SopIwx9D2xVcqXQdkO2qCP7+OmKcihV6bR3Vemab3DbjzxRkhR68Zqhjyp3fhTfL4J3H6dBTBlZONw+tPMgPGARQAgOZOp4HpinMoI5HHTIpjMGHqKI5Dt5AAoA8n1TwDa+GfFHiO9sQtvF4wuoZ53ClwmooipHJ3G11iQdsMmed1TWXhY2sC3nhp49EeaXz5bGSLdaSE53KEB/ckkZ3R4yeqmvStRsYdUtJ7a5hSWGVdro3dT/I+9eR6Tqeo+B/iNqHhjW/3mnazILrQ9WlkXF3Nt/fW7DHyygKJMdH+dl7gYSjZ3MpLqYepeOtR8EeWnjjW9T0a3SXK6mlhDHp0ig8eZdIGEXBGfMWMHGR3x6Ro9nZ3VnDfQ6g2pQ3CiWO5F2ZEdckgqVO0j5jyB2XOcCrLq1xmGWNQsiFXQ8rg8MCGHII654NeB6l8G5fgf40/wCEk8C6w3hjwlqzeXqOi7TLpen3LY8u4+zfwwOxKP5bIYywdfl3CosI94XQtPtZElW0WV0ICuTkj5dvc+meKwLrwDYS6hc3+kyT+GNTlG2SXTcGGYekts37mTPfKhveq2j/ABCutLu7fQ/GOmR+HdTmlFvbXSS+bp9+2OsUxGUfj/VShW6YLZzXZybzwSQ4xwwwf88UgOCtbXxD4NWd7oxtbMd88lmWa0J6tJ9ncmS3JBP+rZ04+6Oa6vwx4psvE1nFc6VdQX1ucgtbSq6jHuOfTg4o8UaKviTRrnTp7y5sknjKm4sZ/Lmjz/dODg1xfw5sIWmg8M+N4V1DxPp7ywab4iVVt7jULYEbX3RYZJAPkYEbWKZGc4pddRHot1YrqsaCcusyMTHJCSskbdiCCOf59OelcR4lk0nXIrrQPFlouu2MMipLqMUWJLRjGHEsypzEcMMSR8YJ3BRmuzj8I39i6tYeIb0xLw0OpRLcjvk78LIPpkjjoa881/wF8R2+LUGt6BL4dsNDvbVLDVpJ/NkkkjjkLRyhMLiYK0iD7y4cZzWkkxtMt+E77w1rngvwTc6RIp8HXDC0tS0geN4SskUJdiMld6oQMjJKjviuu0H4KeEPCdrOnh/RbXQ2un826+xRCNLmRsEl4+QQT/DjA6elLB8IfD8Nulr5Epso7tb5bKKQwwCdZDJ5gjj2DJf5iCSpPau3LNu689zz17/5/KnGHdDUe6OPj8O6losKxWMdjc2SKSsA3QPkkkgA7l6knAA6muE8dfEbTtDmudN8S+FPEltYsro839jPqFncIcZCtb+ZnPowU8V7LIoboc9xmo9gWYsANx6sOtNx7Bynxtqnxfl1rXrCw+E2m+LvGl5HqFr9n0/UNNlsrDT4oyyTu1zMFfyzHKRsYPgqhHTFe1eMPC3jnwv53ibw7puh+MdfS1MLW01tHZ30qFwxiinyVYbeArkDIBzyRXsTMdo3MxH1NAZmXnjJxyKXJ3Eodzgvgj4u07x94ZuvEenaZcaWuo3j/aYL23WG5FxEFikEwBO51ZCu7JyFHPSvRnyBkDvWZp2n2mmrItpaxWolma4kWJAgaRyWZzjqWJJz9auwyF1IKkdOprWPY0SsTBiY87cfWl+6Cfao0bau7n0pdzZJ25OPWqKHEngk/UEUjMWHoe9EbHGBgZHShsPnd16UANbEmAOvXNNdfJHAzuOakACrtXjjFIudvU5xyPSgBPm/v0VHn3ooAtK3y9OfSo8bs5HtRvI6DHvQmZDknA6c0APLf7OBj3ry7Xo7y/8AicdQnkgbS9NsFgtoyp/dXEkhM8rnpgokajHTDetek3l9b6TazXt06pa2yNPK7EABFG5iSeOgPXivIvhrp2paL4J0611W9e81NzJcz3k8jSFfMkaQJuYkkIrKoJ7D2FYVZWQt2eWeBfDOhftZyT+OvEj/ANr6Da309r4b0WO4BjtUicKbm4jDFWuJGUnY4/dqVGMkk+r6X8OPCmka/e29hoNg2tzok11I0AMiqoxHvdl46fKvXjp0rxb4Q/Dv4jt8aPFcegHSfBXwc1Cdrl5NHiT7beTHG5ASd0DSMzMzKMBeF5r630Xw/p3h7T47LTbVLW1i+5GmTz3JJ+Yse5Yknrk9ayjTjU980vOHuFCz8PGS1RbmVi/dUPA9hkZrTtbGCy8wxRhNxyTk85+v0qy3QA5Hek43HBJJ6iumMYx2RAoyFAH1ped3T5e9Jtz82SO3WlZj0x+tWAPjuMntSKSPajceOxPNK3zDBOPxwaAE2sWz26Gl27s5znsacjFevPrnmjaSpxwT0NADURgx+bd68UsmdwI7e9O3eWAGO4jj5R196aeevA/KgB+35RwM9aa8fmdOOc03eFYLtbJ68dKVVViVUmgA+VV28Dvimsd3G4bqc20OCFbJ4yaCjbQRuzjBoAFAVcHgk0u7bkk7ccGlVR1yScU7aTjB7UAR7DID15rM8TeF9L8YaPNpes2Md/Yzj5oJAwww+6wKkFWBAIYEEEAgg1sMN/BOPqaZjaAOvbjmgR5qsmpeBY3XX7j+1dHh2rBrr589V3YC3aqOWHH75cK38QUgk9BPa2mt6bJDNFDdafdRMkiFg8c0TqQV+U/MrKSMg9D1rqnhDKwwfmGOg7/WuDvfhXFp1xcXnhTU7rwzdTyebJaxfv7CRu+bZ/ljyepiKZPJz0OTj2Jt2MHwrZyaPbXHgjXSl/bwxFdPluwJRf2KgARybsh5YRhHBHzKFc/eOM6y0jXfD9xenwxqUVzZ2U7Rz+HtWlZk2lVaNraflocg/wCrcPGSDjb1q14m0/Xl0a9tNe0K61eMfvLfU/DcjG5iccLIiMQ6uucgqT6YINeEeC/jxqPgf4/eINK8cXi3PhLVLC1a08R3ts2lpZTW6yKUulmVR5rhlGUwrEZUckLlvoQfQen/ABE029uJbSeC9stViQzT6ddWrefEq9XIXO5OwdSyn1qLXv7J8RQssd2sVyi+dDdCJ1e3YEFZASB0dVOO+CMc1g6f4++Gfxkie10vxBpOuG2uFtlksbsrLFMQW/cyqQVf5M4U545z0qj4B1Lxx4d0Xd4huJfGdhBLc28lzbxgajD5UzqjSRj5Z8xbGJQCQZ5DdanyA9b8E+MrfxVpoIuLaXUYF23cdtIGUMOC6YPMbHo30B5Bro/Mx0bAFeU6fo+k6xf2Pinw89jJdeXIsN1EhUOr/fVh1znHLZKnORnIq94Z+LwvvHk/g7XtLm0HVvKWewmmYNbaghBz5T/3hjlTzgE8CtYz0sy1Loz0iNjnk5PapF96RY9ucE5+mD1xjil6cHvWhYjKeuMr2NR4YdBnipW4yAOOgpv3VYNjk96oBFj9QeaQ/KdoGT0p6SE4wcduaZz5jE/dxj61IDtu1stx2pVYJweMmhW3SdO1M5yeOewzQBNHll9s+lPODnGKgSY8BhjvjPSpt/qPy6VYCCJjzv56Gm+XvX5T8o4qQtjAG3nk4NLuO3pgUAN8sxgY6U5lJxgZ/GlaQ/KMcU1WOc7RjtQBFsH92irG8+gooAizt4A5+tCBsHgUjErhcUcc/NggZ5oA4f42J9q+Ht7pQKA6tPb6ZtkONySTKJF/GPzB+NYeuTDTNPCBBbvI2xEXoqcbt3oMZFbvj6SS88UeF9OWMSQRSzajOW527E2RcZ4JeU49laua1+WJ5pW2xZto2P75iVwAS2QOg6/lXnYl6NDp/FdnC/ArwzdeNPi5qnxAt/Eurp4a0u1/sfT9EhkCWE8jDM0zLj95jEO05z3zgV9LLnb0zkVw3wU0X+xvhvoyyW62k92jX0sKg/I0xLhfoFKqPYCu+b7mAe1dVFOMFcqbTloRnJIwM9jTDHuQ4JHpipB8q4Hyihm9DityBkall9WA7Ghl/vD9KVePb6Uuf4m6DuKAGry3Oc4p+3K5x+NMDliTjC9mz1p+/wCXNACJleQT6YalZn5wGI9RSbumOaexDtg7fwoAax+UsoycdKF+7noevWnlOQcrxTeinB796AFV88k8UAqCdx5pRgc7sjtTSxz+NACjjPOD3p24BsgZpm0enGaDjdycUAPb5gcfL70jPg7SD09KFbdnJ4pM5yCTxQAispyhxml2jjKgbaQIGwTye1OPyqMkCgBNy8rn3oLdSW6UgO3HNOZiPu/rQA1gHxxndUd5axXimG4jW4iIAKTqHXg56Hin8lR/OlLCNvmb5fekI5W4+GfhW4sbqxPh3S0tbrd58UNmkQk3cEkoFOf9oHPpXIL4L8Q+AdWuLnSJ5PEXh2aJQdKfAv4XX5fNE7Nib5Bghxu+UfMSDn1hhwe4PTmo2U8cc9DUOCkTZHi11r0gvP7Q0RRZ6hM5a603UoWsxeY+VhtZQRNgfLIuQTwdwII17W88M/GHwmbpd17YO8sG6SFoLq0mRtrgBlDxSoy/UFQfTPoWpaXY6vayQ6jaW93bkEmO5jV1HGCcHoa+UPi98QtE/Z++KXhuPQ/EEd1oOowX/wDavhZL0XUloEjWX7RCpZpEXarjy8hcjAA3ZrGUXEVrHuPwg8dareahqvg3xXKsvi7Q0SVbxSAurWDsVhvVHZiQUlUfdkXjhhXpkeGwWByK+avCum6f8Tvil8L/AIq+GNblg0m1h1CzMFzG4+32twhWN0DDcuXjV9rHG3DYDc19LIdpZeADz/8AWrWEtCosdtxwO3PWmYG5ufwz0p65Kn5uOmBTfJXd3xWhQvy7QD19aa/y87sjNOVQgPYUjHdgYyakA3ZzjGOu6m/xdeGp2B8q4yKXrkEfrQAzlsgHOOKf6DOfemt8hPG0Y5pVXO3cKAJ1YcZG0DjmnqBtAxz2xUYZeecDNLu6H9asByyHHXigsRjIwvam4zzjHNOxjmgBu5PX9aKf5a+1FAEA602ZiFGDj5h/MUUUnsBwmrfN8SLonkjSYFB9vOfj6Vx/i9R/ZOutgbvsdyc45+4KKK4K3xIUfhZ7PYoq2qhVACrhQB0AwAB+HFTNRRXdH4RjX/1i0SfeWiiqAd/CKY3+s/D+lFFADm4VcelOUnPX+EUUUAKn3T9acveiigB38K0jdPxoooAb/jStRRQA1fu0qsd/XtRRQArfdpY+hoooAcvRaZJ/WiigBV7U1iaKKAFWhRx0oopADAbBxTH+6v1ooqQDarfKVBVuCCOCDwRXkkfgvw9N8dJ9Uk0LTH1NIpEW9azjMwUwwAqH27sEE8Z7miiqewHYeENC03Tbu5Fpp9raiPcUEMCpty3OMDjNdSKKKiIgycgdqf8AwiiirGROfnNP/wCWYooqQIl5m554p6/db60UUARSVLH0H1ooqwJB/F9aSX/Vj60UUAOT/Vj6U1vvD6UUUASUUUUAf//Z;" vertex="1" parent="1">
          <mxGeometry x="490" y="230" width="370" height="370" as="geometry" />
        </mxCell>
      </root>
    </mxGraphModel>
  </diagram>
  <diagram id="VDzXtggLWc4aFuUsh1gA" name="empty">
    <mxGraphModel dx="780" dy="496" grid="1" gridSize="10" guides="1" tooltips="1" connect="1" arrows="1" fold="1" page="1" pageScale="1" pageWidth="1600" pageHeight="900" math="0" shadow="0">
      <root>
        <mxCell id="0" />
        <mxCell id="1" parent="0" />
      </root>
    </mxGraphModel>
  </diagram>
</mxfile>
